<mxfile host="Electron" modified="2023-06-05T17:10:39.273Z" agent="Mozilla/5.0 (Windows NT 10.0; Win64; x64) AppleWebKit/537.36 (KHTML, like Gecko) draw.io/21.2.8 Chrome/112.0.5615.165 Electron/24.2.0 Safari/537.36" etag="yeDvNvRCb8oNV5Sh2tKo" version="21.2.8" type="device">
  <diagram name="Solution" id="fcz-tIeSqLf4hkpKZDhd">
    <mxGraphModel dx="1267" dy="944" grid="1" gridSize="10" guides="1" tooltips="1" connect="1" arrows="1" fold="1" page="1" pageScale="1" pageWidth="1654" pageHeight="1169" math="0" shadow="0">
      <root>
        <mxCell id="0" />
        <mxCell id="1" parent="0" />
        <mxCell id="g3xv_-LL8xqr9nQWYGwZ-20" style="edgeStyle=orthogonalEdgeStyle;rounded=0;orthogonalLoop=1;jettySize=auto;html=1;exitX=0.5;exitY=1;exitDx=0;exitDy=0;entryX=0.5;entryY=0;entryDx=0;entryDy=0;" parent="1" source="g3xv_-LL8xqr9nQWYGwZ-77" target="g3xv_-LL8xqr9nQWYGwZ-2" edge="1">
          <mxGeometry relative="1" as="geometry" />
        </mxCell>
        <mxCell id="g3xv_-LL8xqr9nQWYGwZ-1" value="Key S&lt;br&gt;ActorTag[0] = &quot;UnlockLabyrinth&quot;" style="rounded=0;whiteSpace=wrap;html=1;fillColor=#FFFFFF;fontColor=#000000;" parent="1" vertex="1">
          <mxGeometry x="648.03" y="120" width="186" height="40" as="geometry" />
        </mxCell>
        <mxCell id="g3xv_-LL8xqr9nQWYGwZ-2" value="Door L1" style="rounded=0;whiteSpace=wrap;html=1;fillColor=#FFFFFF;fontColor=#000000;" parent="1" vertex="1">
          <mxGeometry x="681" y="360" width="120" height="40" as="geometry" />
        </mxCell>
        <mxCell id="g3xv_-LL8xqr9nQWYGwZ-83" style="edgeStyle=orthogonalEdgeStyle;rounded=0;orthogonalLoop=1;jettySize=auto;html=1;entryX=0.5;entryY=0;entryDx=0;entryDy=0;" parent="1" source="g3xv_-LL8xqr9nQWYGwZ-85" target="g3xv_-LL8xqr9nQWYGwZ-60" edge="1">
          <mxGeometry relative="1" as="geometry" />
        </mxCell>
        <mxCell id="g3xv_-LL8xqr9nQWYGwZ-3" value="Treasure B.3&lt;br&gt;ActorTag[0] = &quot;TreasureB3&quot;" style="rounded=0;whiteSpace=wrap;html=1;fillColor=#FFD9B8;fontColor=#000000;" parent="1" vertex="1">
          <mxGeometry x="660.53" y="660" width="161" height="40" as="geometry" />
        </mxCell>
        <mxCell id="g3xv_-LL8xqr9nQWYGwZ-97" style="edgeStyle=orthogonalEdgeStyle;rounded=0;orthogonalLoop=1;jettySize=auto;html=1;entryX=0.5;entryY=0;entryDx=0;entryDy=0;" parent="1" source="g3xv_-LL8xqr9nQWYGwZ-98" target="g3xv_-LL8xqr9nQWYGwZ-96" edge="1">
          <mxGeometry relative="1" as="geometry" />
        </mxCell>
        <mxCell id="g3xv_-LL8xqr9nQWYGwZ-4" value="Treasure A.2&lt;br&gt;ActorTag[0] = &quot;TreasureA2&quot;" style="rounded=0;whiteSpace=wrap;html=1;fillColor=#FFFF99;fontColor=#000000;" parent="1" vertex="1">
          <mxGeometry x="659.7" y="1020" width="161" height="40" as="geometry" />
        </mxCell>
        <mxCell id="g3xv_-LL8xqr9nQWYGwZ-132" style="edgeStyle=orthogonalEdgeStyle;rounded=0;orthogonalLoop=1;jettySize=auto;html=1;entryX=0.5;entryY=0;entryDx=0;entryDy=0;" parent="1" source="g3xv_-LL8xqr9nQWYGwZ-131" target="g3xv_-LL8xqr9nQWYGwZ-123" edge="1">
          <mxGeometry relative="1" as="geometry" />
        </mxCell>
        <mxCell id="g3xv_-LL8xqr9nQWYGwZ-5" value="Activator" style="rounded=0;whiteSpace=wrap;html=1;" parent="1" vertex="1">
          <mxGeometry x="681" y="1420" width="120" height="40" as="geometry" />
        </mxCell>
        <mxCell id="g3xv_-LL8xqr9nQWYGwZ-151" style="edgeStyle=orthogonalEdgeStyle;rounded=0;orthogonalLoop=1;jettySize=auto;html=1;entryX=0.5;entryY=0;entryDx=0;entryDy=0;" parent="1" source="g3xv_-LL8xqr9nQWYGwZ-150" target="g3xv_-LL8xqr9nQWYGwZ-146" edge="1">
          <mxGeometry relative="1" as="geometry" />
        </mxCell>
        <mxCell id="g3xv_-LL8xqr9nQWYGwZ-6" value="Treasure A.3&lt;br&gt;ActorTag[0] = &quot;TreasureA3&quot;" style="rounded=0;whiteSpace=wrap;html=1;fontColor=#000000;fillColor=#9AB394;" parent="1" vertex="1">
          <mxGeometry x="655.08" y="1740" width="170.99" height="40" as="geometry" />
        </mxCell>
        <mxCell id="g3xv_-LL8xqr9nQWYGwZ-218" style="edgeStyle=orthogonalEdgeStyle;rounded=0;orthogonalLoop=1;jettySize=auto;html=1;entryX=0.5;entryY=0;entryDx=0;entryDy=0;" parent="1" source="g3xv_-LL8xqr9nQWYGwZ-247" target="g3xv_-LL8xqr9nQWYGwZ-14" edge="1">
          <mxGeometry relative="1" as="geometry" />
        </mxCell>
        <mxCell id="g3xv_-LL8xqr9nQWYGwZ-8" value="Door LockB3" style="rounded=0;whiteSpace=wrap;html=1;fillColor=#FFCCCC;fontColor=#000000;" parent="1" vertex="1">
          <mxGeometry x="681.02" y="2103" width="120" height="40" as="geometry" />
        </mxCell>
        <mxCell id="g3xv_-LL8xqr9nQWYGwZ-264" style="edgeStyle=orthogonalEdgeStyle;rounded=0;orthogonalLoop=1;jettySize=auto;html=1;entryX=0;entryY=0.5;entryDx=0;entryDy=0;" parent="1" source="g3xv_-LL8xqr9nQWYGwZ-12" target="g3xv_-LL8xqr9nQWYGwZ-263" edge="1">
          <mxGeometry relative="1" as="geometry">
            <Array as="points">
              <mxPoint x="840" y="3240" />
              <mxPoint x="840" y="3199" />
            </Array>
          </mxGeometry>
        </mxCell>
        <mxCell id="g3xv_-LL8xqr9nQWYGwZ-307" style="edgeStyle=orthogonalEdgeStyle;rounded=0;orthogonalLoop=1;jettySize=auto;html=1;entryX=0.5;entryY=0;entryDx=0;entryDy=0;" parent="1" source="g3xv_-LL8xqr9nQWYGwZ-316" target="g3xv_-LL8xqr9nQWYGwZ-306" edge="1">
          <mxGeometry relative="1" as="geometry" />
        </mxCell>
        <mxCell id="g3xv_-LL8xqr9nQWYGwZ-12" value="Treasure B.2&lt;br&gt;ActorTag[0] = &quot;UnlockCage&quot;&lt;br&gt;ActorTag[1] = &quot;TreasureB2&quot;" style="rounded=0;whiteSpace=wrap;html=1;fillColor=#E19FE3;fontColor=#000000;" parent="1" vertex="1">
          <mxGeometry x="660.09" y="3230" width="160.99" height="50" as="geometry" />
        </mxCell>
        <mxCell id="g3xv_-LL8xqr9nQWYGwZ-216" style="edgeStyle=orthogonalEdgeStyle;rounded=0;orthogonalLoop=1;jettySize=auto;html=1;entryX=0.15;entryY=0.948;entryDx=0;entryDy=0;entryPerimeter=0;jumpStyle=arc;" parent="1" source="g3xv_-LL8xqr9nQWYGwZ-14" target="g3xv_-LL8xqr9nQWYGwZ-188" edge="1">
          <mxGeometry relative="1" as="geometry">
            <mxPoint x="80" y="2420" as="targetPoint" />
          </mxGeometry>
        </mxCell>
        <mxCell id="g3xv_-LL8xqr9nQWYGwZ-217" value="&lt;b style=&quot;background-color: rgb(0, 255, 0);&quot;&gt;m = 55&lt;/b&gt;" style="edgeLabel;html=1;align=center;verticalAlign=middle;resizable=0;points=[];fontColor=#000000;" parent="g3xv_-LL8xqr9nQWYGwZ-216" vertex="1" connectable="0">
          <mxGeometry x="0.1928" y="-2" relative="1" as="geometry">
            <mxPoint as="offset" />
          </mxGeometry>
        </mxCell>
        <mxCell id="g3xv_-LL8xqr9nQWYGwZ-230" style="edgeStyle=orthogonalEdgeStyle;rounded=0;orthogonalLoop=1;jettySize=auto;html=1;entryX=0.5;entryY=0;entryDx=0;entryDy=0;" parent="1" source="g3xv_-LL8xqr9nQWYGwZ-232" target="g3xv_-LL8xqr9nQWYGwZ-225" edge="1">
          <mxGeometry relative="1" as="geometry" />
        </mxCell>
        <mxCell id="g3xv_-LL8xqr9nQWYGwZ-14" value="Treasure B.3&lt;br&gt;ActorTag[0] = &quot;TreasureB3&quot;" style="rounded=0;whiteSpace=wrap;html=1;fillColor=#7ED3D9;fontColor=#000000;" parent="1" vertex="1">
          <mxGeometry x="660.06" y="2400" width="161.02" height="40" as="geometry" />
        </mxCell>
        <mxCell id="g3xv_-LL8xqr9nQWYGwZ-342" style="edgeStyle=orthogonalEdgeStyle;rounded=0;orthogonalLoop=1;jettySize=auto;html=1;entryX=0.5;entryY=0;entryDx=0;entryDy=0;" parent="1" source="g3xv_-LL8xqr9nQWYGwZ-348" target="g3xv_-LL8xqr9nQWYGwZ-16" edge="1">
          <mxGeometry relative="1" as="geometry" />
        </mxCell>
        <mxCell id="g3xv_-LL8xqr9nQWYGwZ-15" value="Key T&lt;br&gt;ActorTag[0] = &quot;KeyT&quot;" style="rounded=0;whiteSpace=wrap;html=1;fillColor=#33FF99;fontColor=#000000;" parent="1" vertex="1">
          <mxGeometry x="660.06" y="3560" width="161.02" height="40" as="geometry" />
        </mxCell>
        <mxCell id="g3xv_-LL8xqr9nQWYGwZ-369" style="edgeStyle=orthogonalEdgeStyle;rounded=0;orthogonalLoop=1;jettySize=auto;html=1;entryX=0.5;entryY=0;entryDx=0;entryDy=0;" parent="1" source="g3xv_-LL8xqr9nQWYGwZ-372" target="g3xv_-LL8xqr9nQWYGwZ-18" edge="1">
          <mxGeometry relative="1" as="geometry" />
        </mxCell>
        <mxCell id="g3xv_-LL8xqr9nQWYGwZ-16" value="Door LabSecret" style="rounded=0;whiteSpace=wrap;html=1;" parent="1" vertex="1">
          <mxGeometry x="681.03" y="3880" width="120" height="40" as="geometry" />
        </mxCell>
        <mxCell id="g3xv_-LL8xqr9nQWYGwZ-370" style="edgeStyle=orthogonalEdgeStyle;rounded=0;orthogonalLoop=1;jettySize=auto;html=1;" parent="1" source="g3xv_-LL8xqr9nQWYGwZ-17" edge="1">
          <mxGeometry relative="1" as="geometry">
            <mxPoint x="740" y="4040" as="targetPoint" />
          </mxGeometry>
        </mxCell>
        <mxCell id="g3xv_-LL8xqr9nQWYGwZ-17" value="Door LabCorner" style="rounded=0;whiteSpace=wrap;html=1;" parent="1" vertex="1">
          <mxGeometry x="590" y="4020" width="120" height="40" as="geometry" />
        </mxCell>
        <mxCell id="g3xv_-LL8xqr9nQWYGwZ-384" style="edgeStyle=orthogonalEdgeStyle;rounded=0;orthogonalLoop=1;jettySize=auto;html=1;entryX=0.5;entryY=0;entryDx=0;entryDy=0;" parent="1" source="g3xv_-LL8xqr9nQWYGwZ-383" target="g3xv_-LL8xqr9nQWYGwZ-371" edge="1">
          <mxGeometry relative="1" as="geometry" />
        </mxCell>
        <mxCell id="g3xv_-LL8xqr9nQWYGwZ-18" value="Treasure A.1&lt;br&gt;ActorTag[0] = &quot;TreasureA1&quot;" style="rounded=0;whiteSpace=wrap;html=1;fontColor=#000000;fillColor=#7497D4;" parent="1" vertex="1">
          <mxGeometry x="655.52" y="4150" width="170.98" height="40" as="geometry" />
        </mxCell>
        <mxCell id="g3xv_-LL8xqr9nQWYGwZ-19" value="Door Dungeon" style="rounded=0;whiteSpace=wrap;html=1;fillColor=#9999FF;fontColor=#000000;fontStyle=1" parent="1" vertex="1">
          <mxGeometry x="680.2099999999999" y="4630" width="120" height="40" as="geometry" />
        </mxCell>
        <mxCell id="g3xv_-LL8xqr9nQWYGwZ-24" style="edgeStyle=orthogonalEdgeStyle;rounded=0;orthogonalLoop=1;jettySize=auto;html=1;exitX=0.002;exitY=0.013;exitDx=0;exitDy=0;exitPerimeter=0;" parent="1" source="g3xv_-LL8xqr9nQWYGwZ-23" edge="1">
          <mxGeometry relative="1" as="geometry">
            <mxPoint x="741" y="200" as="targetPoint" />
            <Array as="points">
              <mxPoint x="741" y="200" />
            </Array>
          </mxGeometry>
        </mxCell>
        <mxCell id="g3xv_-LL8xqr9nQWYGwZ-22" value="Grabber" style="swimlane;fontStyle=1;childLayout=stackLayout;horizontal=1;startSize=30;horizontalStack=0;resizeParent=1;resizeParentMax=0;resizeLast=0;collapsible=1;marginBottom=0;whiteSpace=wrap;html=1;fillColor=#009999;fontColor=#303030;" parent="1" vertex="1">
          <mxGeometry x="881" y="160" width="210" height="100" as="geometry" />
        </mxCell>
        <mxCell id="g3xv_-LL8xqr9nQWYGwZ-23" value="Takes Key by tracing;&lt;br&gt;Enable physics;&lt;br&gt;Adds tag &quot;Grabbed&quot; on grab;&lt;br&gt;Removes tag &quot;Grabbed&quot; on release." style="text;strokeColor=none;fillColor=default;align=left;verticalAlign=middle;spacingLeft=4;spacingRight=4;overflow=hidden;points=[[0,0.5],[1,0.5]];portConstraint=eastwest;rotatable=0;whiteSpace=wrap;html=1;" parent="g3xv_-LL8xqr9nQWYGwZ-22" vertex="1">
          <mxGeometry y="30" width="210" height="70" as="geometry" />
        </mxCell>
        <mxCell id="g3xv_-LL8xqr9nQWYGwZ-41" style="edgeStyle=orthogonalEdgeStyle;rounded=0;orthogonalLoop=1;jettySize=auto;html=1;entryX=1;entryY=0.5;entryDx=0;entryDy=0;" parent="1" source="g3xv_-LL8xqr9nQWYGwZ-43" target="g3xv_-LL8xqr9nQWYGwZ-39" edge="1">
          <mxGeometry relative="1" as="geometry">
            <Array as="points" />
          </mxGeometry>
        </mxCell>
        <mxCell id="g3xv_-LL8xqr9nQWYGwZ-25" value="TagTriggerS" style="swimlane;fontStyle=1;childLayout=stackLayout;horizontal=1;startSize=30;horizontalStack=0;resizeParent=1;resizeParentMax=0;resizeLast=0;collapsible=1;marginBottom=0;whiteSpace=wrap;html=1;fillColor=#FF66FF;fontColor=#303030;" parent="1" vertex="1">
          <mxGeometry x="881" y="356" width="245" height="90" as="geometry" />
        </mxCell>
        <mxCell id="g3xv_-LL8xqr9nQWYGwZ-26" value="Check if ActorHasTag &quot;UnlockLabyrinth&quot;;&lt;br&gt;Check if ActorHasNotTag &quot;Grabbed&quot;;&lt;br&gt;Disable physics and move key with it." style="text;strokeColor=none;fillColor=default;align=left;verticalAlign=middle;spacingLeft=4;spacingRight=4;overflow=hidden;points=[[0,0.5],[1,0.5]];portConstraint=eastwest;rotatable=0;whiteSpace=wrap;html=1;" parent="g3xv_-LL8xqr9nQWYGwZ-25" vertex="1">
          <mxGeometry y="30" width="245" height="60" as="geometry" />
        </mxCell>
        <mxCell id="g3xv_-LL8xqr9nQWYGwZ-31" style="edgeStyle=orthogonalEdgeStyle;rounded=0;orthogonalLoop=1;jettySize=auto;html=1;entryX=1;entryY=0.5;entryDx=0;entryDy=0;exitX=0.001;exitY=0.265;exitDx=0;exitDy=0;exitPerimeter=0;" parent="1" source="g3xv_-LL8xqr9nQWYGwZ-25" target="g3xv_-LL8xqr9nQWYGwZ-2" edge="1">
          <mxGeometry relative="1" as="geometry">
            <mxPoint x="821" y="412.4999999999999" as="targetPoint" />
            <mxPoint x="881" y="387" as="sourcePoint" />
            <Array as="points" />
          </mxGeometry>
        </mxCell>
        <mxCell id="g3xv_-LL8xqr9nQWYGwZ-34" style="edgeStyle=orthogonalEdgeStyle;rounded=0;orthogonalLoop=1;jettySize=auto;html=1;entryX=1;entryY=0.75;entryDx=0;entryDy=0;" parent="1" source="g3xv_-LL8xqr9nQWYGwZ-32" target="g3xv_-LL8xqr9nQWYGwZ-2" edge="1">
          <mxGeometry relative="1" as="geometry" />
        </mxCell>
        <mxCell id="g3xv_-LL8xqr9nQWYGwZ-32" value="Point Light (FFFFFF)" style="swimlane;fontStyle=1;childLayout=stackLayout;horizontal=1;startSize=30;horizontalStack=0;resizeParent=1;resizeParentMax=0;resizeLast=0;collapsible=1;marginBottom=0;whiteSpace=wrap;html=1;fillColor=#FFFFFF;fontColor=#303030;" parent="1" vertex="1">
          <mxGeometry x="881" y="460" width="280" height="80" as="geometry" />
        </mxCell>
        <mxCell id="g3xv_-LL8xqr9nQWYGwZ-33" value="Lights ON - when there is no Accepteble Objects;&lt;br&gt;Lights OFF - when there is Accepted Object;&lt;br&gt;When switched OFF once, doesn&#39;t switched back." style="text;strokeColor=none;fillColor=default;align=left;verticalAlign=middle;spacingLeft=4;spacingRight=4;overflow=hidden;points=[[0,0.5],[1,0.5]];portConstraint=eastwest;rotatable=0;whiteSpace=wrap;html=1;" parent="g3xv_-LL8xqr9nQWYGwZ-32" vertex="1">
          <mxGeometry y="30" width="280" height="50" as="geometry" />
        </mxCell>
        <mxCell id="g3xv_-LL8xqr9nQWYGwZ-59" style="edgeStyle=orthogonalEdgeStyle;rounded=0;orthogonalLoop=1;jettySize=auto;html=1;" parent="1" source="g3xv_-LL8xqr9nQWYGwZ-35" edge="1">
          <mxGeometry relative="1" as="geometry">
            <mxPoint x="740" y="460" as="targetPoint" />
          </mxGeometry>
        </mxCell>
        <mxCell id="g3xv_-LL8xqr9nQWYGwZ-35" value="Door L2" style="rounded=0;whiteSpace=wrap;html=1;" parent="1" vertex="1">
          <mxGeometry x="561" y="440" width="120" height="40" as="geometry" />
        </mxCell>
        <mxCell id="g3xv_-LL8xqr9nQWYGwZ-38" style="edgeStyle=orthogonalEdgeStyle;rounded=0;orthogonalLoop=1;jettySize=auto;html=1;" parent="1" source="g3xv_-LL8xqr9nQWYGwZ-36" edge="1">
          <mxGeometry relative="1" as="geometry">
            <mxPoint x="820" y="139.99999999999955" as="targetPoint" />
          </mxGeometry>
        </mxCell>
        <mxCell id="g3xv_-LL8xqr9nQWYGwZ-36" value="Point Light (FFFFFF)" style="swimlane;fontStyle=1;childLayout=stackLayout;horizontal=1;startSize=30;horizontalStack=0;resizeParent=1;resizeParentMax=0;resizeLast=0;collapsible=1;marginBottom=0;whiteSpace=wrap;html=1;fillColor=#FFFFFF;fontColor=#303030;" parent="1" vertex="1">
          <mxGeometry x="881" y="60" width="280" height="80" as="geometry" />
        </mxCell>
        <mxCell id="g3xv_-LL8xqr9nQWYGwZ-37" value="Lights ON - when key is on the place;&lt;br&gt;Lights OFF - when key is grabbed;&lt;br&gt;When switched OFF once, doesn&#39;t switched back." style="text;strokeColor=none;fillColor=default;align=left;verticalAlign=middle;spacingLeft=4;spacingRight=4;overflow=hidden;points=[[0,0.5],[1,0.5]];portConstraint=eastwest;rotatable=0;whiteSpace=wrap;html=1;" parent="g3xv_-LL8xqr9nQWYGwZ-36" vertex="1">
          <mxGeometry y="30" width="280" height="50" as="geometry" />
        </mxCell>
        <mxCell id="g3xv_-LL8xqr9nQWYGwZ-45" style="edgeStyle=orthogonalEdgeStyle;rounded=0;orthogonalLoop=1;jettySize=auto;html=1;entryX=1;entryY=0.25;entryDx=0;entryDy=0;" parent="1" source="g3xv_-LL8xqr9nQWYGwZ-39" target="g3xv_-LL8xqr9nQWYGwZ-2" edge="1">
          <mxGeometry relative="1" as="geometry">
            <Array as="points">
              <mxPoint x="840" y="310" />
              <mxPoint x="840" y="370" />
            </Array>
          </mxGeometry>
        </mxCell>
        <mxCell id="g3xv_-LL8xqr9nQWYGwZ-48" style="edgeStyle=orthogonalEdgeStyle;rounded=0;orthogonalLoop=1;jettySize=auto;html=1;entryX=0.5;entryY=0;entryDx=0;entryDy=0;" parent="1" source="g3xv_-LL8xqr9nQWYGwZ-49" target="g3xv_-LL8xqr9nQWYGwZ-53" edge="1">
          <mxGeometry relative="1" as="geometry">
            <mxPoint x="590" y="300" as="targetPoint" />
            <Array as="points">
              <mxPoint x="430" y="310" />
            </Array>
          </mxGeometry>
        </mxCell>
        <mxCell id="g3xv_-LL8xqr9nQWYGwZ-39" value="MoverL1" style="swimlane;fontStyle=1;childLayout=stackLayout;horizontal=1;startSize=30;horizontalStack=0;resizeParent=1;resizeParentMax=0;resizeLast=0;collapsible=1;marginBottom=0;whiteSpace=wrap;html=1;fillColor=#9933FF;fontColor=#303030;" parent="1" vertex="1">
          <mxGeometry x="881" y="280" width="120" height="60" as="geometry">
            <mxRectangle x="1045" y="595" width="80" height="30" as="alternateBounds" />
          </mxGeometry>
        </mxCell>
        <mxCell id="g3xv_-LL8xqr9nQWYGwZ-40" value="Move Door up" style="text;strokeColor=none;fillColor=default;align=left;verticalAlign=middle;spacingLeft=4;spacingRight=4;overflow=hidden;points=[[0,0.5],[1,0.5]];portConstraint=eastwest;rotatable=0;whiteSpace=wrap;html=1;" parent="g3xv_-LL8xqr9nQWYGwZ-39" vertex="1">
          <mxGeometry y="30" width="120" height="30" as="geometry" />
        </mxCell>
        <mxCell id="g3xv_-LL8xqr9nQWYGwZ-44" value="" style="edgeStyle=orthogonalEdgeStyle;rounded=0;orthogonalLoop=1;jettySize=auto;html=1;entryX=1;entryY=0.5;entryDx=0;entryDy=0;" parent="1" source="g3xv_-LL8xqr9nQWYGwZ-25" target="g3xv_-LL8xqr9nQWYGwZ-43" edge="1">
          <mxGeometry relative="1" as="geometry">
            <mxPoint x="1126" y="401" as="sourcePoint" />
            <mxPoint x="1001" y="310" as="targetPoint" />
            <Array as="points">
              <mxPoint x="1200" y="401" />
              <mxPoint x="1200" y="310" />
            </Array>
          </mxGeometry>
        </mxCell>
        <mxCell id="g3xv_-LL8xqr9nQWYGwZ-43" value="SetState(true)" style="rounded=1;whiteSpace=wrap;html=1;" parent="1" vertex="1">
          <mxGeometry x="1050" y="295" width="101" height="30" as="geometry" />
        </mxCell>
        <mxCell id="g3xv_-LL8xqr9nQWYGwZ-51" style="edgeStyle=orthogonalEdgeStyle;rounded=0;orthogonalLoop=1;jettySize=auto;html=1;entryX=0;entryY=0.5;entryDx=0;entryDy=0;" parent="1" source="g3xv_-LL8xqr9nQWYGwZ-46" target="g3xv_-LL8xqr9nQWYGwZ-35" edge="1">
          <mxGeometry relative="1" as="geometry">
            <Array as="points">
              <mxPoint x="510" y="460" />
              <mxPoint x="510" y="460" />
            </Array>
          </mxGeometry>
        </mxCell>
        <mxCell id="g3xv_-LL8xqr9nQWYGwZ-46" value="MoverL1" style="swimlane;fontStyle=1;childLayout=stackLayout;horizontal=1;startSize=30;horizontalStack=0;resizeParent=1;resizeParentMax=0;resizeLast=0;collapsible=1;marginBottom=0;whiteSpace=wrap;html=1;fillColor=#9933FF;fontColor=#303030;" parent="1" vertex="1">
          <mxGeometry x="370" y="430" width="120" height="60" as="geometry">
            <mxRectangle x="1045" y="595" width="80" height="30" as="alternateBounds" />
          </mxGeometry>
        </mxCell>
        <mxCell id="g3xv_-LL8xqr9nQWYGwZ-47" value="Move Door up" style="text;strokeColor=none;fillColor=default;align=left;verticalAlign=middle;spacingLeft=4;spacingRight=4;overflow=hidden;points=[[0,0.5],[1,0.5]];portConstraint=eastwest;rotatable=0;whiteSpace=wrap;html=1;" parent="g3xv_-LL8xqr9nQWYGwZ-46" vertex="1">
          <mxGeometry y="30" width="120" height="30" as="geometry" />
        </mxCell>
        <mxCell id="g3xv_-LL8xqr9nQWYGwZ-55" style="edgeStyle=orthogonalEdgeStyle;rounded=0;orthogonalLoop=1;jettySize=auto;html=1;entryX=0.5;entryY=0;entryDx=0;entryDy=0;" parent="1" source="g3xv_-LL8xqr9nQWYGwZ-53" target="g3xv_-LL8xqr9nQWYGwZ-46" edge="1">
          <mxGeometry relative="1" as="geometry" />
        </mxCell>
        <mxCell id="g3xv_-LL8xqr9nQWYGwZ-53" value="SetState(state)" style="rounded=1;whiteSpace=wrap;html=1;" parent="1" vertex="1">
          <mxGeometry x="379.5" y="370" width="101" height="30" as="geometry" />
        </mxCell>
        <mxCell id="g3xv_-LL8xqr9nQWYGwZ-57" value="" style="edgeStyle=orthogonalEdgeStyle;rounded=0;orthogonalLoop=1;jettySize=auto;html=1;entryX=1;entryY=0.5;entryDx=0;entryDy=0;jumpStyle=arc;jumpSize=20;" parent="1" source="g3xv_-LL8xqr9nQWYGwZ-39" target="g3xv_-LL8xqr9nQWYGwZ-49" edge="1">
          <mxGeometry relative="1" as="geometry">
            <mxPoint x="430" y="370" as="targetPoint" />
            <mxPoint x="881" y="310" as="sourcePoint" />
            <Array as="points">
              <mxPoint x="530" y="300" />
              <mxPoint x="530" y="300" />
            </Array>
          </mxGeometry>
        </mxCell>
        <mxCell id="g3xv_-LL8xqr9nQWYGwZ-49" value="state = GetState()" style="rounded=1;whiteSpace=wrap;html=1;" parent="1" vertex="1">
          <mxGeometry x="379.5" y="285" width="101" height="30" as="geometry" />
        </mxCell>
        <mxCell id="g3xv_-LL8xqr9nQWYGwZ-94" style="edgeStyle=orthogonalEdgeStyle;rounded=0;orthogonalLoop=1;jettySize=auto;html=1;entryX=0.5;entryY=0;entryDx=0;entryDy=0;" parent="1" source="g3xv_-LL8xqr9nQWYGwZ-90" target="g3xv_-LL8xqr9nQWYGwZ-4" edge="1">
          <mxGeometry relative="1" as="geometry" />
        </mxCell>
        <mxCell id="g3xv_-LL8xqr9nQWYGwZ-60" value="Locker B.3" style="rounded=0;whiteSpace=wrap;html=1;fillColor=#FFD9B8;fontColor=#000000;" parent="1" vertex="1">
          <mxGeometry x="681" y="830" width="120" height="40" as="geometry" />
        </mxCell>
        <mxCell id="g3xv_-LL8xqr9nQWYGwZ-63" style="edgeStyle=orthogonalEdgeStyle;rounded=0;orthogonalLoop=1;jettySize=auto;html=1;entryX=1;entryY=0.25;entryDx=0;entryDy=0;" parent="1" source="g3xv_-LL8xqr9nQWYGwZ-61" target="g3xv_-LL8xqr9nQWYGwZ-60" edge="1">
          <mxGeometry relative="1" as="geometry">
            <mxPoint x="810" y="840" as="targetPoint" />
            <Array as="points">
              <mxPoint x="842" y="800" />
              <mxPoint x="842" y="840" />
            </Array>
          </mxGeometry>
        </mxCell>
        <mxCell id="g3xv_-LL8xqr9nQWYGwZ-61" value="Point Light (FFD9B8)" style="swimlane;fontStyle=1;childLayout=stackLayout;horizontal=1;startSize=30;horizontalStack=0;resizeParent=1;resizeParentMax=0;resizeLast=0;collapsible=1;marginBottom=0;whiteSpace=wrap;html=1;fillColor=#FFD9B8;fontColor=#303030;" parent="1" vertex="1">
          <mxGeometry x="885.99" y="760" width="280" height="80" as="geometry" />
        </mxCell>
        <mxCell id="g3xv_-LL8xqr9nQWYGwZ-62" value="Lights ON - when there is no Accepteble Objects;&lt;br&gt;Lights OFF - when there is Accepted Object;&lt;br&gt;When switched OFF once, doesn&#39;t switched back." style="text;strokeColor=none;fillColor=default;align=left;verticalAlign=middle;spacingLeft=4;spacingRight=4;overflow=hidden;points=[[0,0.5],[1,0.5]];portConstraint=eastwest;rotatable=0;whiteSpace=wrap;html=1;" parent="g3xv_-LL8xqr9nQWYGwZ-61" vertex="1">
          <mxGeometry y="30" width="280" height="50" as="geometry" />
        </mxCell>
        <mxCell id="g3xv_-LL8xqr9nQWYGwZ-66" style="edgeStyle=orthogonalEdgeStyle;rounded=0;orthogonalLoop=1;jettySize=auto;html=1;entryX=1;entryY=0.5;entryDx=0;entryDy=0;" parent="1" source="g3xv_-LL8xqr9nQWYGwZ-64" target="g3xv_-LL8xqr9nQWYGwZ-3" edge="1">
          <mxGeometry relative="1" as="geometry" />
        </mxCell>
        <mxCell id="g3xv_-LL8xqr9nQWYGwZ-64" value="Point Light (FFD9B8)" style="swimlane;fontStyle=1;childLayout=stackLayout;horizontal=1;startSize=30;horizontalStack=0;resizeParent=1;resizeParentMax=0;resizeLast=0;collapsible=1;marginBottom=0;whiteSpace=wrap;html=1;fillColor=#FFD9B8;fontColor=#303030;" parent="1" vertex="1">
          <mxGeometry x="882" y="640" width="280" height="80" as="geometry" />
        </mxCell>
        <mxCell id="g3xv_-LL8xqr9nQWYGwZ-65" value="Lights ON - when treasure&amp;nbsp;is on the place;&lt;br&gt;Lights OFF - when treasure&amp;nbsp;is grabbed;&lt;br&gt;When switched OFF once, doesn&#39;t switched back." style="text;strokeColor=none;fillColor=default;align=left;verticalAlign=middle;spacingLeft=4;spacingRight=4;overflow=hidden;points=[[0,0.5],[1,0.5]];portConstraint=eastwest;rotatable=0;whiteSpace=wrap;html=1;" parent="g3xv_-LL8xqr9nQWYGwZ-64" vertex="1">
          <mxGeometry y="30" width="280" height="50" as="geometry" />
        </mxCell>
        <mxCell id="g3xv_-LL8xqr9nQWYGwZ-67" value="TagLockerB3" style="swimlane;fontStyle=1;childLayout=stackLayout;horizontal=1;startSize=30;horizontalStack=0;resizeParent=1;resizeParentMax=0;resizeLast=0;collapsible=1;marginBottom=0;whiteSpace=wrap;html=1;fillColor=#FF66FF;fontColor=#303030;" parent="1" vertex="1">
          <mxGeometry x="885.99" y="857" width="245" height="90" as="geometry" />
        </mxCell>
        <mxCell id="g3xv_-LL8xqr9nQWYGwZ-68" value="Check if ActorHasTag &quot;TreasureB3&quot;;&lt;br&gt;Check if ActorHasNotTag &quot;Grabbed&quot;;&lt;br&gt;Disable physics and stick Treasure with it." style="text;strokeColor=none;fillColor=default;align=left;verticalAlign=middle;spacingLeft=4;spacingRight=4;overflow=hidden;points=[[0,0.5],[1,0.5]];portConstraint=eastwest;rotatable=0;whiteSpace=wrap;html=1;" parent="g3xv_-LL8xqr9nQWYGwZ-67" vertex="1">
          <mxGeometry y="30" width="245" height="60" as="geometry" />
        </mxCell>
        <mxCell id="g3xv_-LL8xqr9nQWYGwZ-69" style="edgeStyle=orthogonalEdgeStyle;rounded=0;orthogonalLoop=1;jettySize=auto;html=1;entryX=1;entryY=0.75;entryDx=0;entryDy=0;" parent="1" source="g3xv_-LL8xqr9nQWYGwZ-68" target="g3xv_-LL8xqr9nQWYGwZ-60" edge="1">
          <mxGeometry relative="1" as="geometry">
            <Array as="points">
              <mxPoint x="842" y="890" />
              <mxPoint x="842" y="860" />
            </Array>
          </mxGeometry>
        </mxCell>
        <mxCell id="g3xv_-LL8xqr9nQWYGwZ-70" value="MoverDungeon" style="swimlane;fontStyle=1;childLayout=stackLayout;horizontal=1;startSize=30;horizontalStack=0;resizeParent=1;resizeParentMax=0;resizeLast=0;collapsible=1;marginBottom=0;whiteSpace=wrap;html=1;fillColor=#9933FF;fontColor=#303030;" parent="1" vertex="1">
          <mxGeometry x="1311" y="872" width="170" height="60" as="geometry">
            <mxRectangle x="1045" y="595" width="80" height="30" as="alternateBounds" />
          </mxGeometry>
        </mxCell>
        <mxCell id="g3xv_-LL8xqr9nQWYGwZ-71" value="LockersVec.push_back(true)" style="text;strokeColor=none;fillColor=default;align=left;verticalAlign=middle;spacingLeft=4;spacingRight=4;overflow=hidden;points=[[0,0.5],[1,0.5]];portConstraint=eastwest;rotatable=0;whiteSpace=wrap;html=1;" parent="g3xv_-LL8xqr9nQWYGwZ-70" vertex="1">
          <mxGeometry y="30" width="170" height="30" as="geometry" />
        </mxCell>
        <mxCell id="g3xv_-LL8xqr9nQWYGwZ-74" style="edgeStyle=orthogonalEdgeStyle;rounded=0;orthogonalLoop=1;jettySize=auto;html=1;entryX=0;entryY=0.5;entryDx=0;entryDy=0;" parent="1" source="g3xv_-LL8xqr9nQWYGwZ-72" target="g3xv_-LL8xqr9nQWYGwZ-71" edge="1">
          <mxGeometry relative="1" as="geometry" />
        </mxCell>
        <mxCell id="g3xv_-LL8xqr9nQWYGwZ-75" value="" style="edgeStyle=orthogonalEdgeStyle;rounded=0;orthogonalLoop=1;jettySize=auto;html=1;entryX=0;entryY=0.5;entryDx=0;entryDy=0;" parent="1" source="g3xv_-LL8xqr9nQWYGwZ-68" target="g3xv_-LL8xqr9nQWYGwZ-72" edge="1">
          <mxGeometry relative="1" as="geometry">
            <mxPoint x="1127" y="1000" as="sourcePoint" />
            <mxPoint x="1241" y="1000" as="targetPoint" />
          </mxGeometry>
        </mxCell>
        <mxCell id="g3xv_-LL8xqr9nQWYGwZ-72" value="SetState(true)" style="rounded=1;whiteSpace=wrap;html=1;" parent="1" vertex="1">
          <mxGeometry x="1167" y="902" width="101" height="30" as="geometry" />
        </mxCell>
        <mxCell id="g3xv_-LL8xqr9nQWYGwZ-78" value="" style="edgeStyle=orthogonalEdgeStyle;rounded=0;orthogonalLoop=1;jettySize=auto;html=1;exitX=0.5;exitY=1;exitDx=0;exitDy=0;entryX=0.5;entryY=0;entryDx=0;entryDy=0;" parent="1" source="g3xv_-LL8xqr9nQWYGwZ-1" target="g3xv_-LL8xqr9nQWYGwZ-77" edge="1">
          <mxGeometry relative="1" as="geometry">
            <mxPoint x="741" y="160" as="sourcePoint" />
            <mxPoint x="741" y="360" as="targetPoint" />
          </mxGeometry>
        </mxCell>
        <mxCell id="g3xv_-LL8xqr9nQWYGwZ-77" value="Walking with Key S" style="rounded=1;whiteSpace=wrap;html=1;fillColor=#009999;fontColor=#141414;" parent="1" vertex="1">
          <mxGeometry x="676.25" y="230" width="129.5" height="30" as="geometry" />
        </mxCell>
        <mxCell id="g3xv_-LL8xqr9nQWYGwZ-80" value="" style="edgeStyle=orthogonalEdgeStyle;rounded=0;orthogonalLoop=1;jettySize=auto;html=1;entryX=0.5;entryY=0;entryDx=0;entryDy=0;" parent="1" source="g3xv_-LL8xqr9nQWYGwZ-2" target="g3xv_-LL8xqr9nQWYGwZ-84" edge="1">
          <mxGeometry relative="1" as="geometry">
            <mxPoint x="741" y="430" as="sourcePoint" />
            <mxPoint x="741.0050000000001" y="550" as="targetPoint" />
          </mxGeometry>
        </mxCell>
        <mxCell id="g3xv_-LL8xqr9nQWYGwZ-82" style="edgeStyle=orthogonalEdgeStyle;rounded=0;orthogonalLoop=1;jettySize=auto;html=1;" parent="1" source="g3xv_-LL8xqr9nQWYGwZ-79" target="g3xv_-LL8xqr9nQWYGwZ-3" edge="1">
          <mxGeometry relative="1" as="geometry" />
        </mxCell>
        <mxCell id="g3xv_-LL8xqr9nQWYGwZ-79" value="Walking in the Labyrinth, searching" style="rounded=1;whiteSpace=wrap;html=1;fillColor=#FFFFFF;" parent="1" vertex="1">
          <mxGeometry x="664.63" y="580" width="152.75" height="30" as="geometry" />
        </mxCell>
        <mxCell id="g3xv_-LL8xqr9nQWYGwZ-84" value="Walking into the Labyrinth, searching" style="rounded=1;whiteSpace=wrap;html=1;fillColor=#FFFFFF;fontColor=#141414;" parent="1" vertex="1">
          <mxGeometry x="664.63" y="580" width="152.75" height="30" as="geometry" />
        </mxCell>
        <mxCell id="g3xv_-LL8xqr9nQWYGwZ-86" value="" style="edgeStyle=orthogonalEdgeStyle;rounded=0;orthogonalLoop=1;jettySize=auto;html=1;entryX=0.5;entryY=0;entryDx=0;entryDy=0;" parent="1" source="g3xv_-LL8xqr9nQWYGwZ-3" target="g3xv_-LL8xqr9nQWYGwZ-85" edge="1">
          <mxGeometry relative="1" as="geometry">
            <mxPoint x="741" y="700" as="sourcePoint" />
            <mxPoint x="741" y="860" as="targetPoint" />
          </mxGeometry>
        </mxCell>
        <mxCell id="g3xv_-LL8xqr9nQWYGwZ-85" value="Walking with Treasure to the Locker" style="rounded=1;whiteSpace=wrap;html=1;fillColor=#009999;fontColor=#141414;" parent="1" vertex="1">
          <mxGeometry x="633.3299999999999" y="760" width="215.37" height="30" as="geometry" />
        </mxCell>
        <mxCell id="g3xv_-LL8xqr9nQWYGwZ-89" style="edgeStyle=orthogonalEdgeStyle;rounded=0;orthogonalLoop=1;jettySize=auto;html=1;" parent="1" source="g3xv_-LL8xqr9nQWYGwZ-87" edge="1">
          <mxGeometry relative="1" as="geometry">
            <mxPoint x="740" y="720" as="targetPoint" />
            <Array as="points">
              <mxPoint x="640" y="680" />
              <mxPoint x="640" y="720" />
            </Array>
          </mxGeometry>
        </mxCell>
        <mxCell id="g3xv_-LL8xqr9nQWYGwZ-87" value="Grabber" style="swimlane;fontStyle=1;childLayout=stackLayout;horizontal=1;startSize=30;horizontalStack=0;resizeParent=1;resizeParentMax=0;resizeLast=0;collapsible=1;marginBottom=0;whiteSpace=wrap;html=1;fillColor=#009999;fontColor=#303030;" parent="1" vertex="1">
          <mxGeometry x="409.5" y="630" width="210" height="100" as="geometry" />
        </mxCell>
        <mxCell id="g3xv_-LL8xqr9nQWYGwZ-88" value="Takes Treasure&amp;nbsp;by tracing;&lt;br&gt;Enable physics;&lt;br&gt;Adds tag &quot;Grabbed&quot; on grab;&lt;br&gt;Removes tag &quot;Grabbed&quot; on release." style="text;strokeColor=none;fillColor=default;align=left;verticalAlign=middle;spacingLeft=4;spacingRight=4;overflow=hidden;points=[[0,0.5],[1,0.5]];portConstraint=eastwest;rotatable=0;whiteSpace=wrap;html=1;" parent="g3xv_-LL8xqr9nQWYGwZ-87" vertex="1">
          <mxGeometry y="30" width="210" height="70" as="geometry" />
        </mxCell>
        <mxCell id="g3xv_-LL8xqr9nQWYGwZ-95" value="" style="edgeStyle=orthogonalEdgeStyle;rounded=0;orthogonalLoop=1;jettySize=auto;html=1;entryX=0.5;entryY=0;entryDx=0;entryDy=0;" parent="1" source="g3xv_-LL8xqr9nQWYGwZ-60" target="g3xv_-LL8xqr9nQWYGwZ-90" edge="1">
          <mxGeometry relative="1" as="geometry">
            <mxPoint x="741" y="900" as="sourcePoint" />
            <mxPoint x="741" y="1020" as="targetPoint" />
          </mxGeometry>
        </mxCell>
        <mxCell id="g3xv_-LL8xqr9nQWYGwZ-90" value="Walking in the Labyrinth, searching" style="rounded=1;whiteSpace=wrap;html=1;fillColor=#FFFFFF;fontColor=#141414;" parent="1" vertex="1">
          <mxGeometry x="664.63" y="910" width="152.75" height="30" as="geometry" />
        </mxCell>
        <mxCell id="g3xv_-LL8xqr9nQWYGwZ-119" style="edgeStyle=orthogonalEdgeStyle;rounded=0;orthogonalLoop=1;jettySize=auto;html=1;entryX=0.5;entryY=0;entryDx=0;entryDy=0;" parent="1" source="g3xv_-LL8xqr9nQWYGwZ-118" target="g3xv_-LL8xqr9nQWYGwZ-5" edge="1">
          <mxGeometry relative="1" as="geometry" />
        </mxCell>
        <mxCell id="g3xv_-LL8xqr9nQWYGwZ-96" value="Locker A.2" style="rounded=0;whiteSpace=wrap;html=1;fillColor=#FFFF99;fontColor=#000000;" parent="1" vertex="1">
          <mxGeometry x="681" y="1220" width="120" height="40" as="geometry" />
        </mxCell>
        <mxCell id="g3xv_-LL8xqr9nQWYGwZ-99" value="" style="edgeStyle=orthogonalEdgeStyle;rounded=0;orthogonalLoop=1;jettySize=auto;html=1;entryX=0.5;entryY=0;entryDx=0;entryDy=0;" parent="1" source="g3xv_-LL8xqr9nQWYGwZ-4" target="g3xv_-LL8xqr9nQWYGwZ-98" edge="1">
          <mxGeometry relative="1" as="geometry">
            <mxPoint x="741" y="1060" as="sourcePoint" />
            <mxPoint x="741" y="1220" as="targetPoint" />
          </mxGeometry>
        </mxCell>
        <mxCell id="g3xv_-LL8xqr9nQWYGwZ-98" value="Walking with Treasure to the Locker" style="rounded=1;whiteSpace=wrap;html=1;fillColor=#009999;fontColor=#141414;" parent="1" vertex="1">
          <mxGeometry x="633.3199999999999" y="1130" width="215.38" height="30" as="geometry" />
        </mxCell>
        <mxCell id="g3xv_-LL8xqr9nQWYGwZ-102" style="edgeStyle=orthogonalEdgeStyle;rounded=0;orthogonalLoop=1;jettySize=auto;html=1;" parent="1" source="g3xv_-LL8xqr9nQWYGwZ-100" edge="1">
          <mxGeometry relative="1" as="geometry">
            <mxPoint x="740" y="1089.9999999999995" as="targetPoint" />
            <Array as="points">
              <mxPoint x="640" y="1040" />
              <mxPoint x="640" y="1091" />
            </Array>
          </mxGeometry>
        </mxCell>
        <mxCell id="g3xv_-LL8xqr9nQWYGwZ-100" value="Grabber" style="swimlane;fontStyle=1;childLayout=stackLayout;horizontal=1;startSize=30;horizontalStack=0;resizeParent=1;resizeParentMax=0;resizeLast=0;collapsible=1;marginBottom=0;whiteSpace=wrap;html=1;fillColor=#009999;fontColor=#303030;" parent="1" vertex="1">
          <mxGeometry x="395" y="990" width="210" height="100" as="geometry" />
        </mxCell>
        <mxCell id="g3xv_-LL8xqr9nQWYGwZ-101" value="Takes Treasure&amp;nbsp;by tracing;&lt;br&gt;Enable physics;&lt;br&gt;Adds tag &quot;Grabbed&quot; on grab;&lt;br&gt;Removes tag &quot;Grabbed&quot; on release." style="text;strokeColor=none;fillColor=default;align=left;verticalAlign=middle;spacingLeft=4;spacingRight=4;overflow=hidden;points=[[0,0.5],[1,0.5]];portConstraint=eastwest;rotatable=0;whiteSpace=wrap;html=1;" parent="g3xv_-LL8xqr9nQWYGwZ-100" vertex="1">
          <mxGeometry y="30" width="210" height="70" as="geometry" />
        </mxCell>
        <mxCell id="g3xv_-LL8xqr9nQWYGwZ-105" style="edgeStyle=orthogonalEdgeStyle;rounded=0;orthogonalLoop=1;jettySize=auto;html=1;entryX=1;entryY=0.5;entryDx=0;entryDy=0;" parent="1" source="g3xv_-LL8xqr9nQWYGwZ-103" target="g3xv_-LL8xqr9nQWYGwZ-4" edge="1">
          <mxGeometry relative="1" as="geometry" />
        </mxCell>
        <mxCell id="g3xv_-LL8xqr9nQWYGwZ-103" value="Point Light (FFFF99)" style="swimlane;fontStyle=1;childLayout=stackLayout;horizontal=1;startSize=30;horizontalStack=0;resizeParent=1;resizeParentMax=0;resizeLast=0;collapsible=1;marginBottom=0;whiteSpace=wrap;html=1;fillColor=#FFFF99;fontColor=#303030;" parent="1" vertex="1">
          <mxGeometry x="882" y="1020" width="280" height="80" as="geometry" />
        </mxCell>
        <mxCell id="g3xv_-LL8xqr9nQWYGwZ-104" value="Lights ON - when treasure&amp;nbsp;is on the place;&lt;br&gt;Lights OFF - when treasure&amp;nbsp;is grabbed;&lt;br&gt;When switched OFF once, doesn&#39;t switched back." style="text;strokeColor=none;fillColor=default;align=left;verticalAlign=middle;spacingLeft=4;spacingRight=4;overflow=hidden;points=[[0,0.5],[1,0.5]];portConstraint=eastwest;rotatable=0;whiteSpace=wrap;html=1;" parent="g3xv_-LL8xqr9nQWYGwZ-103" vertex="1">
          <mxGeometry y="30" width="280" height="50" as="geometry" />
        </mxCell>
        <mxCell id="g3xv_-LL8xqr9nQWYGwZ-108" style="edgeStyle=orthogonalEdgeStyle;rounded=0;orthogonalLoop=1;jettySize=auto;html=1;" parent="1" source="g3xv_-LL8xqr9nQWYGwZ-106" target="g3xv_-LL8xqr9nQWYGwZ-96" edge="1">
          <mxGeometry relative="1" as="geometry" />
        </mxCell>
        <mxCell id="g3xv_-LL8xqr9nQWYGwZ-106" value="Point Light (FFFF99)" style="swimlane;fontStyle=1;childLayout=stackLayout;horizontal=1;startSize=30;horizontalStack=0;resizeParent=1;resizeParentMax=0;resizeLast=0;collapsible=1;marginBottom=0;whiteSpace=wrap;html=1;fillColor=#FFFF99;fontColor=#303030;" parent="1" vertex="1">
          <mxGeometry x="881" y="1160" width="280" height="80" as="geometry" />
        </mxCell>
        <mxCell id="g3xv_-LL8xqr9nQWYGwZ-107" value="Lights ON - when there is no Accepteble Objects;&lt;br&gt;Lights OFF - when there is Accepted Object;&lt;br&gt;When switched OFF once, doesn&#39;t switched back." style="text;strokeColor=none;fillColor=default;align=left;verticalAlign=middle;spacingLeft=4;spacingRight=4;overflow=hidden;points=[[0,0.5],[1,0.5]];portConstraint=eastwest;rotatable=0;whiteSpace=wrap;html=1;" parent="g3xv_-LL8xqr9nQWYGwZ-106" vertex="1">
          <mxGeometry y="30" width="280" height="50" as="geometry" />
        </mxCell>
        <mxCell id="g3xv_-LL8xqr9nQWYGwZ-116" style="edgeStyle=orthogonalEdgeStyle;rounded=0;orthogonalLoop=1;jettySize=auto;html=1;entryX=1;entryY=0.75;entryDx=0;entryDy=0;" parent="1" source="g3xv_-LL8xqr9nQWYGwZ-109" target="g3xv_-LL8xqr9nQWYGwZ-96" edge="1">
          <mxGeometry relative="1" as="geometry" />
        </mxCell>
        <mxCell id="g3xv_-LL8xqr9nQWYGwZ-109" value="TagLockerA2" style="swimlane;fontStyle=1;childLayout=stackLayout;horizontal=1;startSize=30;horizontalStack=0;resizeParent=1;resizeParentMax=0;resizeLast=0;collapsible=1;marginBottom=0;whiteSpace=wrap;html=1;fillColor=#FF66FF;fontColor=#303030;" parent="1" vertex="1">
          <mxGeometry x="882" y="1260" width="245" height="90" as="geometry" />
        </mxCell>
        <mxCell id="g3xv_-LL8xqr9nQWYGwZ-110" value="Check if ActorHasTag &quot;TreasureA2&quot;;&lt;br&gt;Check if ActorHasNotTag &quot;Grabbed&quot;;&lt;br&gt;Disable physics and stick Treasure with it." style="text;strokeColor=none;fillColor=default;align=left;verticalAlign=middle;spacingLeft=4;spacingRight=4;overflow=hidden;points=[[0,0.5],[1,0.5]];portConstraint=eastwest;rotatable=0;whiteSpace=wrap;html=1;" parent="g3xv_-LL8xqr9nQWYGwZ-109" vertex="1">
          <mxGeometry y="30" width="245" height="60" as="geometry" />
        </mxCell>
        <mxCell id="g3xv_-LL8xqr9nQWYGwZ-406" style="edgeStyle=orthogonalEdgeStyle;rounded=0;orthogonalLoop=1;jettySize=auto;html=1;" parent="1" source="g3xv_-LL8xqr9nQWYGwZ-111" edge="1">
          <mxGeometry relative="1" as="geometry">
            <mxPoint x="1630" y="1305" as="targetPoint" />
          </mxGeometry>
        </mxCell>
        <mxCell id="g3xv_-LL8xqr9nQWYGwZ-111" value="MoverDungeon" style="swimlane;fontStyle=1;childLayout=stackLayout;horizontal=1;startSize=30;horizontalStack=0;resizeParent=1;resizeParentMax=0;resizeLast=0;collapsible=1;marginBottom=0;whiteSpace=wrap;html=1;fillColor=#9933FF;fontColor=#303030;" parent="1" vertex="1">
          <mxGeometry x="1311" y="1275" width="170" height="60" as="geometry">
            <mxRectangle x="1045" y="595" width="80" height="30" as="alternateBounds" />
          </mxGeometry>
        </mxCell>
        <mxCell id="g3xv_-LL8xqr9nQWYGwZ-112" value="LockersVec.push_back(true)" style="text;strokeColor=none;fillColor=default;align=left;verticalAlign=middle;spacingLeft=4;spacingRight=4;overflow=hidden;points=[[0,0.5],[1,0.5]];portConstraint=eastwest;rotatable=0;whiteSpace=wrap;html=1;" parent="g3xv_-LL8xqr9nQWYGwZ-111" vertex="1">
          <mxGeometry y="30" width="170" height="30" as="geometry" />
        </mxCell>
        <mxCell id="g3xv_-LL8xqr9nQWYGwZ-113" style="edgeStyle=orthogonalEdgeStyle;rounded=0;orthogonalLoop=1;jettySize=auto;html=1;entryX=0;entryY=0.5;entryDx=0;entryDy=0;" parent="1" source="g3xv_-LL8xqr9nQWYGwZ-115" target="g3xv_-LL8xqr9nQWYGwZ-112" edge="1">
          <mxGeometry relative="1" as="geometry" />
        </mxCell>
        <mxCell id="g3xv_-LL8xqr9nQWYGwZ-114" value="" style="edgeStyle=orthogonalEdgeStyle;rounded=0;orthogonalLoop=1;jettySize=auto;html=1;entryX=0;entryY=0.5;entryDx=0;entryDy=0;" parent="1" source="g3xv_-LL8xqr9nQWYGwZ-110" target="g3xv_-LL8xqr9nQWYGwZ-115" edge="1">
          <mxGeometry relative="1" as="geometry">
            <mxPoint x="1127" y="1320" as="sourcePoint" />
            <mxPoint x="1241" y="1320" as="targetPoint" />
          </mxGeometry>
        </mxCell>
        <mxCell id="g3xv_-LL8xqr9nQWYGwZ-115" value="SetState(true)" style="rounded=1;whiteSpace=wrap;html=1;" parent="1" vertex="1">
          <mxGeometry x="1162" y="1305" width="101" height="30" as="geometry" />
        </mxCell>
        <mxCell id="g3xv_-LL8xqr9nQWYGwZ-120" value="" style="edgeStyle=orthogonalEdgeStyle;rounded=0;orthogonalLoop=1;jettySize=auto;html=1;entryX=0.5;entryY=0;entryDx=0;entryDy=0;" parent="1" source="g3xv_-LL8xqr9nQWYGwZ-96" target="g3xv_-LL8xqr9nQWYGwZ-118" edge="1">
          <mxGeometry relative="1" as="geometry">
            <mxPoint x="741" y="1260" as="sourcePoint" />
            <mxPoint x="741" y="1460" as="targetPoint" />
          </mxGeometry>
        </mxCell>
        <mxCell id="g3xv_-LL8xqr9nQWYGwZ-118" value="Walking in the Labyrinth, searching" style="rounded=1;whiteSpace=wrap;html=1;fillColor=#FFFFFF;fontColor=#141414;" parent="1" vertex="1">
          <mxGeometry x="664.63" y="1325" width="152.75" height="30" as="geometry" />
        </mxCell>
        <mxCell id="g3xv_-LL8xqr9nQWYGwZ-147" style="edgeStyle=orthogonalEdgeStyle;rounded=0;orthogonalLoop=1;jettySize=auto;html=1;entryX=0.5;entryY=0;entryDx=0;entryDy=0;" parent="1" source="g3xv_-LL8xqr9nQWYGwZ-148" target="g3xv_-LL8xqr9nQWYGwZ-6" edge="1">
          <mxGeometry relative="1" as="geometry" />
        </mxCell>
        <mxCell id="g3xv_-LL8xqr9nQWYGwZ-123" value="Door RotatingB2" style="rounded=0;whiteSpace=wrap;html=1;" parent="1" vertex="1">
          <mxGeometry x="681" y="1580" width="120" height="40" as="geometry" />
        </mxCell>
        <mxCell id="g3xv_-LL8xqr9nQWYGwZ-125" style="edgeStyle=orthogonalEdgeStyle;rounded=0;orthogonalLoop=1;jettySize=auto;html=1;entryX=0;entryY=0.5;entryDx=0;entryDy=0;" parent="1" source="g3xv_-LL8xqr9nQWYGwZ-124" target="g3xv_-LL8xqr9nQWYGwZ-123" edge="1">
          <mxGeometry relative="1" as="geometry" />
        </mxCell>
        <mxCell id="g3xv_-LL8xqr9nQWYGwZ-124" value="Door rotates, but Treasure B2 still closed. But we can find Treasure A.3 now." style="rounded=0;whiteSpace=wrap;html=1;" parent="1" vertex="1">
          <mxGeometry x="400" y="1570" width="180" height="60" as="geometry" />
        </mxCell>
        <mxCell id="g3xv_-LL8xqr9nQWYGwZ-130" style="edgeStyle=orthogonalEdgeStyle;rounded=0;orthogonalLoop=1;jettySize=auto;html=1;entryX=1;entryY=0.5;entryDx=0;entryDy=0;startArrow=classic;startFill=1;endArrow=none;endFill=0;" parent="1" source="g3xv_-LL8xqr9nQWYGwZ-128" target="g3xv_-LL8xqr9nQWYGwZ-5" edge="1">
          <mxGeometry relative="1" as="geometry" />
        </mxCell>
        <mxCell id="g3xv_-LL8xqr9nQWYGwZ-128" value="Activator" style="swimlane;fontStyle=1;childLayout=stackLayout;horizontal=1;startSize=30;horizontalStack=0;resizeParent=1;resizeParentMax=0;resizeLast=0;collapsible=1;marginBottom=0;whiteSpace=wrap;html=1;fillColor=#EA6B66;fontColor=#303030;" parent="1" vertex="1">
          <mxGeometry x="842.07" y="1408.5" width="210" height="63" as="geometry" />
        </mxCell>
        <mxCell id="g3xv_-LL8xqr9nQWYGwZ-129" value="Acitvate tunnel to the A.3 treasure;&lt;br&gt;Move objects and activate." style="text;strokeColor=none;fillColor=default;align=left;verticalAlign=middle;spacingLeft=4;spacingRight=4;overflow=hidden;points=[[0,0.5],[1,0.5]];portConstraint=eastwest;rotatable=0;whiteSpace=wrap;html=1;" parent="g3xv_-LL8xqr9nQWYGwZ-128" vertex="1">
          <mxGeometry y="30" width="210" height="33" as="geometry" />
        </mxCell>
        <mxCell id="g3xv_-LL8xqr9nQWYGwZ-133" value="" style="edgeStyle=orthogonalEdgeStyle;rounded=0;orthogonalLoop=1;jettySize=auto;html=1;entryX=0.5;entryY=0;entryDx=0;entryDy=0;" parent="1" source="g3xv_-LL8xqr9nQWYGwZ-5" target="g3xv_-LL8xqr9nQWYGwZ-131" edge="1">
          <mxGeometry relative="1" as="geometry">
            <mxPoint x="741" y="1460" as="sourcePoint" />
            <mxPoint x="741" y="1580" as="targetPoint" />
          </mxGeometry>
        </mxCell>
        <mxCell id="g3xv_-LL8xqr9nQWYGwZ-131" value="Move two items on the table" style="rounded=1;whiteSpace=wrap;html=1;fillColor=#FFFFFF;fontColor=#141414;" parent="1" vertex="1">
          <mxGeometry x="673.31" y="1500" width="135.37" height="30" as="geometry" />
        </mxCell>
        <mxCell id="g3xv_-LL8xqr9nQWYGwZ-134" value="TagTriggerBook1" style="swimlane;fontStyle=1;childLayout=stackLayout;horizontal=1;startSize=30;horizontalStack=0;resizeParent=1;resizeParentMax=0;resizeLast=0;collapsible=1;marginBottom=0;whiteSpace=wrap;html=1;fillColor=#FF66FF;fontColor=#303030;" parent="1" vertex="1">
          <mxGeometry x="1287.73" y="1408.5" width="245" height="90" as="geometry" />
        </mxCell>
        <mxCell id="g3xv_-LL8xqr9nQWYGwZ-135" value="Check if ActorHasTag &quot;Book1&quot;;&lt;br&gt;Check if ActorHasNotTag &quot;Grabbed&quot;;&lt;br&gt;Disable physics and stick Treasure with it." style="text;strokeColor=none;fillColor=default;align=left;verticalAlign=middle;spacingLeft=4;spacingRight=4;overflow=hidden;points=[[0,0.5],[1,0.5]];portConstraint=eastwest;rotatable=0;whiteSpace=wrap;html=1;" parent="g3xv_-LL8xqr9nQWYGwZ-134" vertex="1">
          <mxGeometry y="30" width="245" height="60" as="geometry" />
        </mxCell>
        <mxCell id="g3xv_-LL8xqr9nQWYGwZ-136" style="edgeStyle=orthogonalEdgeStyle;rounded=0;orthogonalLoop=1;jettySize=auto;html=1;entryX=1;entryY=0.25;entryDx=0;entryDy=0;startArrow=classic;startFill=1;endArrow=none;endFill=0;" parent="1" source="_aBlnP6FN6MrEG6PL2YJ-25" target="g3xv_-LL8xqr9nQWYGwZ-128" edge="1">
          <mxGeometry relative="1" as="geometry">
            <Array as="points" />
          </mxGeometry>
        </mxCell>
        <mxCell id="g3xv_-LL8xqr9nQWYGwZ-137" value="TagTriggerBook2" style="swimlane;fontStyle=1;childLayout=stackLayout;horizontal=1;startSize=30;horizontalStack=0;resizeParent=1;resizeParentMax=0;resizeLast=0;collapsible=1;marginBottom=0;whiteSpace=wrap;html=1;fillColor=#FF66FF;fontColor=#303030;" parent="1" vertex="1">
          <mxGeometry x="1287.73" y="1530" width="245" height="90" as="geometry" />
        </mxCell>
        <mxCell id="g3xv_-LL8xqr9nQWYGwZ-138" value="Check if ActorHasTag &quot;Book2&quot;;&lt;br&gt;Check if ActorHasNotTag &quot;Grabbed&quot;;&lt;br&gt;Disable physics and stick Treasure with it." style="text;strokeColor=none;fillColor=default;align=left;verticalAlign=middle;spacingLeft=4;spacingRight=4;overflow=hidden;points=[[0,0.5],[1,0.5]];portConstraint=eastwest;rotatable=0;whiteSpace=wrap;html=1;" parent="g3xv_-LL8xqr9nQWYGwZ-137" vertex="1">
          <mxGeometry y="30" width="245" height="60" as="geometry" />
        </mxCell>
        <mxCell id="g3xv_-LL8xqr9nQWYGwZ-142" style="edgeStyle=orthogonalEdgeStyle;rounded=0;orthogonalLoop=1;jettySize=auto;html=1;entryX=1;entryY=0.5;entryDx=0;entryDy=0;" parent="1" source="g3xv_-LL8xqr9nQWYGwZ-140" target="g3xv_-LL8xqr9nQWYGwZ-123" edge="1">
          <mxGeometry relative="1" as="geometry" />
        </mxCell>
        <mxCell id="g3xv_-LL8xqr9nQWYGwZ-140" value="RotatorB2" style="swimlane;fontStyle=1;childLayout=stackLayout;horizontal=1;startSize=30;horizontalStack=0;resizeParent=1;resizeParentMax=0;resizeLast=0;collapsible=1;marginBottom=0;whiteSpace=wrap;html=1;fillColor=#9933FF;fontColor=#303030;" parent="1" vertex="1">
          <mxGeometry x="860" y="1570" width="120" height="60" as="geometry">
            <mxRectangle x="1045" y="595" width="80" height="30" as="alternateBounds" />
          </mxGeometry>
        </mxCell>
        <mxCell id="g3xv_-LL8xqr9nQWYGwZ-141" value="Rotate gate doors" style="text;strokeColor=none;fillColor=default;align=left;verticalAlign=middle;spacingLeft=4;spacingRight=4;overflow=hidden;points=[[0,0.5],[1,0.5]];portConstraint=eastwest;rotatable=0;whiteSpace=wrap;html=1;" parent="g3xv_-LL8xqr9nQWYGwZ-140" vertex="1">
          <mxGeometry y="30" width="120" height="30" as="geometry" />
        </mxCell>
        <mxCell id="g3xv_-LL8xqr9nQWYGwZ-144" style="edgeStyle=orthogonalEdgeStyle;rounded=0;orthogonalLoop=1;jettySize=auto;html=1;entryX=1;entryY=0.5;entryDx=0;entryDy=0;" parent="1" source="g3xv_-LL8xqr9nQWYGwZ-214" target="g3xv_-LL8xqr9nQWYGwZ-141" edge="1">
          <mxGeometry relative="1" as="geometry">
            <Array as="points">
              <mxPoint x="1010" y="1675" />
              <mxPoint x="1010" y="1615" />
            </Array>
          </mxGeometry>
        </mxCell>
        <mxCell id="g3xv_-LL8xqr9nQWYGwZ-145" style="edgeStyle=orthogonalEdgeStyle;rounded=0;orthogonalLoop=1;jettySize=auto;html=1;entryX=1;entryY=0.25;entryDx=0;entryDy=0;" parent="1" source="g3xv_-LL8xqr9nQWYGwZ-209" target="g3xv_-LL8xqr9nQWYGwZ-140" edge="1">
          <mxGeometry relative="1" as="geometry">
            <Array as="points" />
          </mxGeometry>
        </mxCell>
        <mxCell id="g3xv_-LL8xqr9nQWYGwZ-207" style="edgeStyle=orthogonalEdgeStyle;rounded=0;orthogonalLoop=1;jettySize=auto;html=1;entryX=0.5;entryY=0;entryDx=0;entryDy=0;" parent="1" source="g3xv_-LL8xqr9nQWYGwZ-206" target="g3xv_-LL8xqr9nQWYGwZ-8" edge="1">
          <mxGeometry relative="1" as="geometry" />
        </mxCell>
        <mxCell id="g3xv_-LL8xqr9nQWYGwZ-146" value="Locker A.3" style="rounded=0;whiteSpace=wrap;html=1;fontColor=#000000;fillColor=#9AB394;" parent="1" vertex="1">
          <mxGeometry x="680.99" y="1920" width="120" height="40" as="geometry" />
        </mxCell>
        <mxCell id="g3xv_-LL8xqr9nQWYGwZ-149" value="" style="edgeStyle=orthogonalEdgeStyle;rounded=0;orthogonalLoop=1;jettySize=auto;html=1;entryX=0.5;entryY=0;entryDx=0;entryDy=0;" parent="1" source="g3xv_-LL8xqr9nQWYGwZ-123" target="g3xv_-LL8xqr9nQWYGwZ-148" edge="1">
          <mxGeometry relative="1" as="geometry">
            <mxPoint x="741" y="1620" as="sourcePoint" />
            <mxPoint x="741" y="1740" as="targetPoint" />
          </mxGeometry>
        </mxCell>
        <mxCell id="g3xv_-LL8xqr9nQWYGwZ-148" value="Walk into the tunnel,&lt;br&gt;search for A.3" style="rounded=1;whiteSpace=wrap;html=1;fillColor=#FFFFFF;fontColor=#141414;" parent="1" vertex="1">
          <mxGeometry x="673.3299999999999" y="1660" width="135.37" height="30" as="geometry" />
        </mxCell>
        <mxCell id="g3xv_-LL8xqr9nQWYGwZ-152" value="" style="edgeStyle=orthogonalEdgeStyle;rounded=0;orthogonalLoop=1;jettySize=auto;html=1;entryX=0.5;entryY=0;entryDx=0;entryDy=0;" parent="1" source="g3xv_-LL8xqr9nQWYGwZ-6" target="g3xv_-LL8xqr9nQWYGwZ-150" edge="1">
          <mxGeometry relative="1" as="geometry">
            <mxPoint x="741" y="1780" as="sourcePoint" />
            <mxPoint x="741" y="1900" as="targetPoint" />
          </mxGeometry>
        </mxCell>
        <mxCell id="g3xv_-LL8xqr9nQWYGwZ-150" value="Walking with Treasure to the Locker" style="rounded=1;whiteSpace=wrap;html=1;fillColor=#009999;fontColor=#141414;" parent="1" vertex="1">
          <mxGeometry x="633.3299999999999" y="1838" width="215.38" height="30" as="geometry" />
        </mxCell>
        <mxCell id="g3xv_-LL8xqr9nQWYGwZ-153" value="Grabber" style="swimlane;fontStyle=1;childLayout=stackLayout;horizontal=1;startSize=30;horizontalStack=0;resizeParent=1;resizeParentMax=0;resizeLast=0;collapsible=1;marginBottom=0;whiteSpace=wrap;html=1;fillColor=#009999;fontColor=#303030;" parent="1" vertex="1">
          <mxGeometry x="395" y="1680" width="210" height="100" as="geometry" />
        </mxCell>
        <mxCell id="g3xv_-LL8xqr9nQWYGwZ-155" style="edgeStyle=orthogonalEdgeStyle;rounded=0;orthogonalLoop=1;jettySize=auto;html=1;" parent="g3xv_-LL8xqr9nQWYGwZ-153" source="g3xv_-LL8xqr9nQWYGwZ-154" edge="1">
          <mxGeometry relative="1" as="geometry">
            <mxPoint x="345" y="120" as="targetPoint" />
            <Array as="points">
              <mxPoint x="245" y="65" />
              <mxPoint x="245" y="120" />
              <mxPoint x="345" y="120" />
            </Array>
          </mxGeometry>
        </mxCell>
        <mxCell id="g3xv_-LL8xqr9nQWYGwZ-154" value="Takes Treasure&amp;nbsp;by tracing;&lt;br&gt;Enable physics;&lt;br&gt;Adds tag &quot;Grabbed&quot; on grab;&lt;br&gt;Removes tag &quot;Grabbed&quot; on release." style="text;strokeColor=none;fillColor=default;align=left;verticalAlign=middle;spacingLeft=4;spacingRight=4;overflow=hidden;points=[[0,0.5],[1,0.5]];portConstraint=eastwest;rotatable=0;whiteSpace=wrap;html=1;" parent="g3xv_-LL8xqr9nQWYGwZ-153" vertex="1">
          <mxGeometry y="30" width="210" height="70" as="geometry" />
        </mxCell>
        <mxCell id="g3xv_-LL8xqr9nQWYGwZ-162" style="edgeStyle=orthogonalEdgeStyle;rounded=0;orthogonalLoop=1;jettySize=auto;html=1;entryX=1;entryY=0.25;entryDx=0;entryDy=0;" parent="1" source="g3xv_-LL8xqr9nQWYGwZ-157" target="g3xv_-LL8xqr9nQWYGwZ-146" edge="1">
          <mxGeometry relative="1" as="geometry" />
        </mxCell>
        <mxCell id="g3xv_-LL8xqr9nQWYGwZ-157" value="Point Light (9AB394)" style="swimlane;fontStyle=1;childLayout=stackLayout;horizontal=1;startSize=30;horizontalStack=0;resizeParent=1;resizeParentMax=0;resizeLast=0;collapsible=1;marginBottom=0;whiteSpace=wrap;html=1;fillColor=#9AB394;fontColor=#303030;" parent="1" vertex="1">
          <mxGeometry x="863.5" y="1868" width="280" height="80" as="geometry" />
        </mxCell>
        <mxCell id="g3xv_-LL8xqr9nQWYGwZ-158" value="Lights ON - when there is no Accepteble Objects;&lt;br&gt;Lights OFF - when there is Accepted Object;&lt;br&gt;When switched OFF once, doesn&#39;t switched back." style="text;strokeColor=none;fillColor=default;align=left;verticalAlign=middle;spacingLeft=4;spacingRight=4;overflow=hidden;points=[[0,0.5],[1,0.5]];portConstraint=eastwest;rotatable=0;whiteSpace=wrap;html=1;" parent="g3xv_-LL8xqr9nQWYGwZ-157" vertex="1">
          <mxGeometry y="30" width="280" height="50" as="geometry" />
        </mxCell>
        <mxCell id="g3xv_-LL8xqr9nQWYGwZ-161" style="edgeStyle=orthogonalEdgeStyle;rounded=0;orthogonalLoop=1;jettySize=auto;html=1;entryX=1;entryY=0.5;entryDx=0;entryDy=0;" parent="1" source="g3xv_-LL8xqr9nQWYGwZ-159" target="g3xv_-LL8xqr9nQWYGwZ-6" edge="1">
          <mxGeometry relative="1" as="geometry" />
        </mxCell>
        <mxCell id="g3xv_-LL8xqr9nQWYGwZ-159" value="Point Light (9AB394)" style="swimlane;fontStyle=1;childLayout=stackLayout;horizontal=1;startSize=30;horizontalStack=0;resizeParent=1;resizeParentMax=0;resizeLast=0;collapsible=1;marginBottom=0;whiteSpace=wrap;html=1;fillColor=#9AB394;fontColor=#303030;" parent="1" vertex="1">
          <mxGeometry x="864.5" y="1720" width="280" height="80" as="geometry" />
        </mxCell>
        <mxCell id="g3xv_-LL8xqr9nQWYGwZ-160" value="Lights ON - when treasure&amp;nbsp;is on the place;&lt;br&gt;Lights OFF - when treasure&amp;nbsp;is grabbed;&lt;br&gt;When switched OFF once, doesn&#39;t switched back." style="text;strokeColor=none;fillColor=default;align=left;verticalAlign=middle;spacingLeft=4;spacingRight=4;overflow=hidden;points=[[0,0.5],[1,0.5]];portConstraint=eastwest;rotatable=0;whiteSpace=wrap;html=1;" parent="g3xv_-LL8xqr9nQWYGwZ-159" vertex="1">
          <mxGeometry y="30" width="280" height="50" as="geometry" />
        </mxCell>
        <mxCell id="g3xv_-LL8xqr9nQWYGwZ-163" value="TagLockerA3" style="swimlane;fontStyle=1;childLayout=stackLayout;horizontal=1;startSize=30;horizontalStack=0;resizeParent=1;resizeParentMax=0;resizeLast=0;collapsible=1;marginBottom=0;whiteSpace=wrap;html=1;fillColor=#FF66FF;fontColor=#303030;" parent="1" vertex="1">
          <mxGeometry x="863.5" y="1980" width="245" height="90" as="geometry" />
        </mxCell>
        <mxCell id="g3xv_-LL8xqr9nQWYGwZ-164" value="Check if ActorHasTag &quot;TreasureA3&quot;;&lt;br&gt;Check if ActorHasNotTag &quot;Grabbed&quot;;&lt;br&gt;Disable physics and stick Treasure with it." style="text;strokeColor=none;fillColor=default;align=left;verticalAlign=middle;spacingLeft=4;spacingRight=4;overflow=hidden;points=[[0,0.5],[1,0.5]];portConstraint=eastwest;rotatable=0;whiteSpace=wrap;html=1;" parent="g3xv_-LL8xqr9nQWYGwZ-163" vertex="1">
          <mxGeometry y="30" width="245" height="60" as="geometry" />
        </mxCell>
        <mxCell id="g3xv_-LL8xqr9nQWYGwZ-405" style="edgeStyle=orthogonalEdgeStyle;rounded=0;orthogonalLoop=1;jettySize=auto;html=1;" parent="1" source="g3xv_-LL8xqr9nQWYGwZ-165" edge="1">
          <mxGeometry relative="1" as="geometry">
            <mxPoint x="1630" y="2025" as="targetPoint" />
          </mxGeometry>
        </mxCell>
        <mxCell id="g3xv_-LL8xqr9nQWYGwZ-165" value="MoverDungeon" style="swimlane;fontStyle=1;childLayout=stackLayout;horizontal=1;startSize=30;horizontalStack=0;resizeParent=1;resizeParentMax=0;resizeLast=0;collapsible=1;marginBottom=0;whiteSpace=wrap;html=1;fillColor=#9933FF;fontColor=#303030;" parent="1" vertex="1">
          <mxGeometry x="1292.5" y="1995" width="170" height="60" as="geometry">
            <mxRectangle x="1045" y="595" width="80" height="30" as="alternateBounds" />
          </mxGeometry>
        </mxCell>
        <mxCell id="g3xv_-LL8xqr9nQWYGwZ-166" value="LockersVec.push_back(true)" style="text;strokeColor=none;fillColor=default;align=left;verticalAlign=middle;spacingLeft=4;spacingRight=4;overflow=hidden;points=[[0,0.5],[1,0.5]];portConstraint=eastwest;rotatable=0;whiteSpace=wrap;html=1;" parent="g3xv_-LL8xqr9nQWYGwZ-165" vertex="1">
          <mxGeometry y="30" width="170" height="30" as="geometry" />
        </mxCell>
        <mxCell id="g3xv_-LL8xqr9nQWYGwZ-167" style="edgeStyle=orthogonalEdgeStyle;rounded=0;orthogonalLoop=1;jettySize=auto;html=1;entryX=0;entryY=0.5;entryDx=0;entryDy=0;" parent="1" source="g3xv_-LL8xqr9nQWYGwZ-169" target="g3xv_-LL8xqr9nQWYGwZ-166" edge="1">
          <mxGeometry relative="1" as="geometry" />
        </mxCell>
        <mxCell id="g3xv_-LL8xqr9nQWYGwZ-168" value="" style="edgeStyle=orthogonalEdgeStyle;rounded=0;orthogonalLoop=1;jettySize=auto;html=1;entryX=0;entryY=0.5;entryDx=0;entryDy=0;" parent="1" source="g3xv_-LL8xqr9nQWYGwZ-164" target="g3xv_-LL8xqr9nQWYGwZ-169" edge="1">
          <mxGeometry relative="1" as="geometry">
            <mxPoint x="1108.5" y="2040" as="sourcePoint" />
            <mxPoint x="1222.5" y="2040" as="targetPoint" />
          </mxGeometry>
        </mxCell>
        <mxCell id="g3xv_-LL8xqr9nQWYGwZ-169" value="SetState(true)" style="rounded=1;whiteSpace=wrap;html=1;" parent="1" vertex="1">
          <mxGeometry x="1143.5" y="2025" width="101" height="30" as="geometry" />
        </mxCell>
        <mxCell id="g3xv_-LL8xqr9nQWYGwZ-170" style="edgeStyle=orthogonalEdgeStyle;rounded=0;orthogonalLoop=1;jettySize=auto;html=1;entryX=1;entryY=0.75;entryDx=0;entryDy=0;" parent="1" source="g3xv_-LL8xqr9nQWYGwZ-164" target="g3xv_-LL8xqr9nQWYGwZ-146" edge="1">
          <mxGeometry relative="1" as="geometry" />
        </mxCell>
        <mxCell id="g3xv_-LL8xqr9nQWYGwZ-183" style="edgeStyle=orthogonalEdgeStyle;rounded=0;orthogonalLoop=1;jettySize=auto;html=1;entryX=0.547;entryY=0.033;entryDx=0;entryDy=0;entryPerimeter=0;jumpStyle=none;jumpSize=20;" parent="1" source="g3xv_-LL8xqr9nQWYGwZ-171" target="g3xv_-LL8xqr9nQWYGwZ-189" edge="1">
          <mxGeometry relative="1" as="geometry">
            <Array as="points">
              <mxPoint x="540" y="2015" />
            </Array>
          </mxGeometry>
        </mxCell>
        <mxCell id="g3xv_-LL8xqr9nQWYGwZ-185" value="m = 20" style="edgeLabel;html=1;align=center;verticalAlign=middle;resizable=0;points=[];labelBorderColor=none;labelBackgroundColor=#FF0000;fontStyle=1" parent="g3xv_-LL8xqr9nQWYGwZ-183" vertex="1" connectable="0">
          <mxGeometry x="0.0266" y="3" relative="1" as="geometry">
            <mxPoint x="-113" y="-69" as="offset" />
          </mxGeometry>
        </mxCell>
        <mxCell id="g3xv_-LL8xqr9nQWYGwZ-171" value="Dummy D1" style="rounded=0;whiteSpace=wrap;html=1;" parent="1" vertex="1">
          <mxGeometry x="220.00000000000006" y="1995" width="120" height="40" as="geometry" />
        </mxCell>
        <mxCell id="g3xv_-LL8xqr9nQWYGwZ-182" style="edgeStyle=orthogonalEdgeStyle;rounded=0;orthogonalLoop=1;jettySize=auto;html=1;entryX=0.468;entryY=0.033;entryDx=0;entryDy=0;entryPerimeter=0;jumpStyle=arc;jumpSize=20;" parent="1" source="g3xv_-LL8xqr9nQWYGwZ-172" target="g3xv_-LL8xqr9nQWYGwZ-189" edge="1">
          <mxGeometry relative="1" as="geometry">
            <mxPoint x="420" y="2260" as="targetPoint" />
            <Array as="points">
              <mxPoint x="524" y="2075" />
            </Array>
          </mxGeometry>
        </mxCell>
        <mxCell id="g3xv_-LL8xqr9nQWYGwZ-184" value="m = 40" style="edgeLabel;html=1;align=center;verticalAlign=middle;resizable=0;points=[];labelBackgroundColor=#FF0000;fontStyle=1" parent="g3xv_-LL8xqr9nQWYGwZ-182" vertex="1" connectable="0">
          <mxGeometry x="0.0868" y="-1" relative="1" as="geometry">
            <mxPoint x="-93" y="-59" as="offset" />
          </mxGeometry>
        </mxCell>
        <mxCell id="g3xv_-LL8xqr9nQWYGwZ-172" value="Dummy D2&lt;br&gt;ActorTag[0] = &quot;UnlockCage&quot;" style="rounded=0;whiteSpace=wrap;html=1;" parent="1" vertex="1">
          <mxGeometry x="170" y="2055" width="170.01" height="40" as="geometry" />
        </mxCell>
        <mxCell id="g3xv_-LL8xqr9nQWYGwZ-181" style="edgeStyle=orthogonalEdgeStyle;rounded=0;orthogonalLoop=1;jettySize=auto;html=1;entryX=0.413;entryY=0.009;entryDx=0;entryDy=0;entryPerimeter=0;jumpStyle=arc;jumpSize=20;" parent="1" source="g3xv_-LL8xqr9nQWYGwZ-173" target="g3xv_-LL8xqr9nQWYGwZ-189" edge="1">
          <mxGeometry relative="1" as="geometry">
            <Array as="points">
              <mxPoint x="513" y="2135" />
            </Array>
          </mxGeometry>
        </mxCell>
        <mxCell id="g3xv_-LL8xqr9nQWYGwZ-186" value="m = 10" style="edgeLabel;html=1;align=center;verticalAlign=middle;resizable=0;points=[];labelBackgroundColor=#FF0000;fontStyle=1" parent="g3xv_-LL8xqr9nQWYGwZ-181" vertex="1" connectable="0">
          <mxGeometry x="0.1576" y="-1" relative="1" as="geometry">
            <mxPoint x="-82" y="-24" as="offset" />
          </mxGeometry>
        </mxCell>
        <mxCell id="g3xv_-LL8xqr9nQWYGwZ-173" value="Dummy D3" style="rounded=0;whiteSpace=wrap;html=1;" parent="1" vertex="1">
          <mxGeometry x="220.00000000000006" y="2115" width="120" height="40" as="geometry" />
        </mxCell>
        <mxCell id="g3xv_-LL8xqr9nQWYGwZ-190" style="edgeStyle=orthogonalEdgeStyle;rounded=0;orthogonalLoop=1;jettySize=auto;html=1;entryX=0;entryY=0.5;entryDx=0;entryDy=0;" parent="1" source="g3xv_-LL8xqr9nQWYGwZ-174" target="g3xv_-LL8xqr9nQWYGwZ-188" edge="1">
          <mxGeometry relative="1" as="geometry">
            <Array as="points">
              <mxPoint x="220" y="2278" />
              <mxPoint x="220" y="2278" />
            </Array>
          </mxGeometry>
        </mxCell>
        <mxCell id="g3xv_-LL8xqr9nQWYGwZ-191" style="edgeStyle=orthogonalEdgeStyle;rounded=0;orthogonalLoop=1;jettySize=auto;html=1;entryX=0;entryY=0.5;entryDx=0;entryDy=0;jumpStyle=arc;jumpSize=20;" parent="1" source="g3xv_-LL8xqr9nQWYGwZ-174" target="g3xv_-LL8xqr9nQWYGwZ-189" edge="1">
          <mxGeometry relative="1" as="geometry">
            <Array as="points">
              <mxPoint x="220" y="2318" />
              <mxPoint x="220" y="2318" />
            </Array>
          </mxGeometry>
        </mxCell>
        <mxCell id="g3xv_-LL8xqr9nQWYGwZ-174" value="MassTriggerB3" style="swimlane;fontStyle=1;childLayout=stackLayout;horizontal=1;startSize=30;horizontalStack=0;resizeParent=1;resizeParentMax=0;resizeLast=0;collapsible=1;marginBottom=0;whiteSpace=wrap;html=1;fillColor=#FF66FF;fontColor=#303030;" parent="1" vertex="1">
          <mxGeometry x="20" y="2243" width="245" height="90" as="geometry" />
        </mxCell>
        <mxCell id="g3xv_-LL8xqr9nQWYGwZ-175" value="Check if ActorMass &amp;gt;=45;&lt;br&gt;Check if ActorHasNotTag &quot;Grabbed&quot;;&lt;br&gt;Disable physics and stick Treasure with it." style="text;strokeColor=none;fillColor=default;align=left;verticalAlign=middle;spacingLeft=4;spacingRight=4;overflow=hidden;points=[[0,0.5],[1,0.5]];portConstraint=eastwest;rotatable=0;whiteSpace=wrap;html=1;" parent="g3xv_-LL8xqr9nQWYGwZ-174" vertex="1">
          <mxGeometry y="30" width="245" height="60" as="geometry" />
        </mxCell>
        <mxCell id="g3xv_-LL8xqr9nQWYGwZ-180" style="edgeStyle=orthogonalEdgeStyle;rounded=0;orthogonalLoop=1;jettySize=auto;html=1;entryX=0.329;entryY=0.006;entryDx=0;entryDy=0;entryPerimeter=0;" parent="1" source="g3xv_-LL8xqr9nQWYGwZ-178" target="g3xv_-LL8xqr9nQWYGwZ-188" edge="1">
          <mxGeometry relative="1" as="geometry">
            <mxPoint x="100.5" y="2240" as="targetPoint" />
            <Array as="points">
              <mxPoint x="368" y="2195" />
            </Array>
          </mxGeometry>
        </mxCell>
        <mxCell id="g3xv_-LL8xqr9nQWYGwZ-187" value="m = 50" style="edgeLabel;html=1;align=center;verticalAlign=middle;resizable=0;points=[];labelBackgroundColor=#00FF00;fontColor=#000000;fontStyle=1" parent="g3xv_-LL8xqr9nQWYGwZ-180" vertex="1" connectable="0">
          <mxGeometry x="0.437" y="1" relative="1" as="geometry">
            <mxPoint x="1" y="1" as="offset" />
          </mxGeometry>
        </mxCell>
        <mxCell id="g3xv_-LL8xqr9nQWYGwZ-178" value="Dummy D4" style="rounded=0;whiteSpace=wrap;html=1;" parent="1" vertex="1">
          <mxGeometry x="220" y="2175" width="120.01" height="40" as="geometry" />
        </mxCell>
        <mxCell id="g3xv_-LL8xqr9nQWYGwZ-193" style="edgeStyle=orthogonalEdgeStyle;rounded=0;orthogonalLoop=1;jettySize=auto;html=1;entryX=0;entryY=0.25;entryDx=0;entryDy=0;" parent="1" source="g3xv_-LL8xqr9nQWYGwZ-199" target="g3xv_-LL8xqr9nQWYGwZ-8" edge="1">
          <mxGeometry relative="1" as="geometry">
            <Array as="points">
              <mxPoint x="650" y="2113" />
            </Array>
          </mxGeometry>
        </mxCell>
        <mxCell id="g3xv_-LL8xqr9nQWYGwZ-188" value="Put DummyD4 -&amp;gt; SetState(false)" style="rounded=1;whiteSpace=wrap;html=1;" parent="1" vertex="1">
          <mxGeometry x="301.5" y="2263" width="201" height="30" as="geometry" />
        </mxCell>
        <mxCell id="g3xv_-LL8xqr9nQWYGwZ-204" style="edgeStyle=orthogonalEdgeStyle;rounded=0;orthogonalLoop=1;jettySize=auto;html=1;entryX=0.5;entryY=1.008;entryDx=0;entryDy=0;entryPerimeter=0;" parent="1" source="g3xv_-LL8xqr9nQWYGwZ-189" target="g3xv_-LL8xqr9nQWYGwZ-200" edge="1">
          <mxGeometry relative="1" as="geometry">
            <Array as="points">
              <mxPoint x="650" y="2318" />
            </Array>
          </mxGeometry>
        </mxCell>
        <mxCell id="g3xv_-LL8xqr9nQWYGwZ-189" value="Empty area -&amp;gt; SetState(true)" style="rounded=1;whiteSpace=wrap;html=1;" parent="1" vertex="1">
          <mxGeometry x="430" y="2303" width="201" height="30" as="geometry" />
        </mxCell>
        <mxCell id="g3xv_-LL8xqr9nQWYGwZ-199" value="MoverB3" style="swimlane;fontStyle=1;childLayout=stackLayout;horizontal=1;startSize=30;horizontalStack=0;resizeParent=1;resizeParentMax=0;resizeLast=0;collapsible=1;marginBottom=0;whiteSpace=wrap;html=1;fillColor=#9933FF;fontColor=#303030;" parent="1" vertex="1">
          <mxGeometry x="580" y="2183" width="140" height="60" as="geometry">
            <mxRectangle x="1045" y="595" width="80" height="30" as="alternateBounds" />
          </mxGeometry>
        </mxCell>
        <mxCell id="g3xv_-LL8xqr9nQWYGwZ-200" value="Open/Close gate door" style="text;strokeColor=none;fillColor=default;align=left;verticalAlign=middle;spacingLeft=4;spacingRight=4;overflow=hidden;points=[[0,0.5],[1,0.5]];portConstraint=eastwest;rotatable=0;whiteSpace=wrap;html=1;" parent="g3xv_-LL8xqr9nQWYGwZ-199" vertex="1">
          <mxGeometry y="30" width="140" height="30" as="geometry" />
        </mxCell>
        <mxCell id="g3xv_-LL8xqr9nQWYGwZ-208" value="" style="edgeStyle=orthogonalEdgeStyle;rounded=0;orthogonalLoop=1;jettySize=auto;html=1;entryX=0.5;entryY=0;entryDx=0;entryDy=0;" parent="1" source="g3xv_-LL8xqr9nQWYGwZ-146" target="g3xv_-LL8xqr9nQWYGwZ-206" edge="1">
          <mxGeometry relative="1" as="geometry">
            <mxPoint x="741" y="1960" as="sourcePoint" />
            <mxPoint x="741" y="2103" as="targetPoint" />
          </mxGeometry>
        </mxCell>
        <mxCell id="g3xv_-LL8xqr9nQWYGwZ-206" value="Walk in the Labyrinth,&lt;br&gt;find gate door LockB3" style="rounded=1;whiteSpace=wrap;html=1;fillColor=#FFFFFF;fontColor=#141414;" parent="1" vertex="1">
          <mxGeometry x="673.3399999999999" y="2010" width="135.37" height="30" as="geometry" />
        </mxCell>
        <mxCell id="g3xv_-LL8xqr9nQWYGwZ-213" value="" style="edgeStyle=orthogonalEdgeStyle;rounded=0;orthogonalLoop=1;jettySize=auto;html=1;entryX=1;entryY=0.5;entryDx=0;entryDy=0;" parent="1" source="g3xv_-LL8xqr9nQWYGwZ-138" target="g3xv_-LL8xqr9nQWYGwZ-209" edge="1">
          <mxGeometry relative="1" as="geometry">
            <mxPoint x="1406" y="1590" as="sourcePoint" />
            <mxPoint x="980" y="1585" as="targetPoint" />
            <Array as="points">
              <mxPoint x="1550" y="1590" />
              <mxPoint x="1550" y="1645" />
            </Array>
          </mxGeometry>
        </mxCell>
        <mxCell id="g3xv_-LL8xqr9nQWYGwZ-209" value="SetState(true)" style="rounded=1;whiteSpace=wrap;html=1;" parent="1" vertex="1">
          <mxGeometry x="1108.5" y="1630" width="101" height="30" as="geometry" />
        </mxCell>
        <mxCell id="g3xv_-LL8xqr9nQWYGwZ-215" value="" style="edgeStyle=orthogonalEdgeStyle;rounded=0;orthogonalLoop=1;jettySize=auto;html=1;entryX=1;entryY=0.5;entryDx=0;entryDy=0;" parent="1" source="g3xv_-LL8xqr9nQWYGwZ-135" target="g3xv_-LL8xqr9nQWYGwZ-214" edge="1">
          <mxGeometry relative="1" as="geometry">
            <mxPoint x="1406" y="1469" as="sourcePoint" />
            <mxPoint x="980" y="1615" as="targetPoint" />
            <Array as="points">
              <mxPoint x="1570" y="1469" />
              <mxPoint x="1570" y="1675" />
            </Array>
          </mxGeometry>
        </mxCell>
        <mxCell id="g3xv_-LL8xqr9nQWYGwZ-214" value="SetState(true)" style="rounded=1;whiteSpace=wrap;html=1;" parent="1" vertex="1">
          <mxGeometry x="1233" y="1660" width="101" height="30" as="geometry" />
        </mxCell>
        <mxCell id="g3xv_-LL8xqr9nQWYGwZ-221" style="edgeStyle=orthogonalEdgeStyle;rounded=0;orthogonalLoop=1;jettySize=auto;html=1;entryX=1;entryY=0.5;entryDx=0;entryDy=0;" parent="1" source="g3xv_-LL8xqr9nQWYGwZ-219" target="g3xv_-LL8xqr9nQWYGwZ-14" edge="1">
          <mxGeometry relative="1" as="geometry" />
        </mxCell>
        <mxCell id="g3xv_-LL8xqr9nQWYGwZ-219" value="Point Light (7ED3D9)" style="swimlane;fontStyle=1;childLayout=stackLayout;horizontal=1;startSize=30;horizontalStack=0;resizeParent=1;resizeParentMax=0;resizeLast=0;collapsible=1;marginBottom=0;whiteSpace=wrap;html=1;fillColor=#7ED3D9;fontColor=#303030;" parent="1" vertex="1">
          <mxGeometry x="863.5" y="2380" width="280" height="80" as="geometry" />
        </mxCell>
        <mxCell id="g3xv_-LL8xqr9nQWYGwZ-220" value="Lights ON - when treasure is on the place;&lt;br&gt;Lights OFF - when treasure&amp;nbsp;is grabbed;&lt;br&gt;When switched OFF once, doesn&#39;t switched back." style="text;strokeColor=none;fillColor=default;align=left;verticalAlign=middle;spacingLeft=4;spacingRight=4;overflow=hidden;points=[[0,0.5],[1,0.5]];portConstraint=eastwest;rotatable=0;whiteSpace=wrap;html=1;" parent="g3xv_-LL8xqr9nQWYGwZ-219" vertex="1">
          <mxGeometry y="30" width="280" height="50" as="geometry" />
        </mxCell>
        <mxCell id="g3xv_-LL8xqr9nQWYGwZ-222" value="Point Light (7ED3D9)" style="swimlane;fontStyle=1;childLayout=stackLayout;horizontal=1;startSize=30;horizontalStack=0;resizeParent=1;resizeParentMax=0;resizeLast=0;collapsible=1;marginBottom=0;whiteSpace=wrap;html=1;fillColor=#7ED3D9;fontColor=#303030;" parent="1" vertex="1">
          <mxGeometry x="864.5" y="2620" width="280" height="80" as="geometry" />
        </mxCell>
        <mxCell id="g3xv_-LL8xqr9nQWYGwZ-223" value="Lights ON - when there is no Accepteble Objects;&lt;br&gt;Lights OFF - when there is Accepted Object;&lt;br&gt;When switched OFF once, doesn&#39;t switched back." style="text;strokeColor=none;fillColor=default;align=left;verticalAlign=middle;spacingLeft=4;spacingRight=4;overflow=hidden;points=[[0,0.5],[1,0.5]];portConstraint=eastwest;rotatable=0;whiteSpace=wrap;html=1;" parent="g3xv_-LL8xqr9nQWYGwZ-222" vertex="1">
          <mxGeometry y="30" width="280" height="50" as="geometry" />
        </mxCell>
        <mxCell id="g3xv_-LL8xqr9nQWYGwZ-246" style="edgeStyle=orthogonalEdgeStyle;rounded=0;orthogonalLoop=1;jettySize=auto;html=1;entryX=0.5;entryY=0;entryDx=0;entryDy=0;" parent="1" source="g3xv_-LL8xqr9nQWYGwZ-249" target="g3xv_-LL8xqr9nQWYGwZ-245" edge="1">
          <mxGeometry relative="1" as="geometry" />
        </mxCell>
        <mxCell id="g3xv_-LL8xqr9nQWYGwZ-225" value="Locker B.3" style="rounded=0;whiteSpace=wrap;html=1;fontColor=#000000;fillColor=#7ED3D9;" parent="1" vertex="1">
          <mxGeometry x="680.99" y="2660" width="120" height="40" as="geometry" />
        </mxCell>
        <mxCell id="g3xv_-LL8xqr9nQWYGwZ-226" style="edgeStyle=orthogonalEdgeStyle;rounded=0;orthogonalLoop=1;jettySize=auto;html=1;entryX=1;entryY=0.5;entryDx=0;entryDy=0;" parent="1" source="g3xv_-LL8xqr9nQWYGwZ-223" target="g3xv_-LL8xqr9nQWYGwZ-225" edge="1">
          <mxGeometry relative="1" as="geometry">
            <Array as="points">
              <mxPoint x="840" y="2660" />
              <mxPoint x="840" y="2680" />
            </Array>
          </mxGeometry>
        </mxCell>
        <mxCell id="g3xv_-LL8xqr9nQWYGwZ-228" style="edgeStyle=orthogonalEdgeStyle;rounded=0;orthogonalLoop=1;jettySize=auto;html=1;entryX=1;entryY=0.5;entryDx=0;entryDy=0;" parent="1" source="g3xv_-LL8xqr9nQWYGwZ-227" target="g3xv_-LL8xqr9nQWYGwZ-8" edge="1">
          <mxGeometry relative="1" as="geometry" />
        </mxCell>
        <mxCell id="g3xv_-LL8xqr9nQWYGwZ-227" value="When you try to take out Treasure B.3 - door LockB3 closes. Need to place something with the mass bigger then 45 kg to pass thru." style="rounded=0;whiteSpace=wrap;html=1;" parent="1" vertex="1">
          <mxGeometry x="883.5" y="2106" width="256.5" height="77" as="geometry" />
        </mxCell>
        <mxCell id="g3xv_-LL8xqr9nQWYGwZ-231" style="edgeStyle=orthogonalEdgeStyle;rounded=0;orthogonalLoop=1;jettySize=auto;html=1;" parent="1" source="g3xv_-LL8xqr9nQWYGwZ-229" edge="1">
          <mxGeometry relative="1" as="geometry">
            <mxPoint x="740" y="2460" as="targetPoint" />
            <Array as="points">
              <mxPoint x="810" y="2492" />
              <mxPoint x="810" y="2460" />
            </Array>
          </mxGeometry>
        </mxCell>
        <mxCell id="g3xv_-LL8xqr9nQWYGwZ-229" value="You can grab treasure when place something" style="rounded=0;whiteSpace=wrap;html=1;" parent="1" vertex="1">
          <mxGeometry x="864.5" y="2473" width="165.5" height="37" as="geometry" />
        </mxCell>
        <mxCell id="g3xv_-LL8xqr9nQWYGwZ-233" value="" style="edgeStyle=orthogonalEdgeStyle;rounded=0;orthogonalLoop=1;jettySize=auto;html=1;entryX=0.5;entryY=0;entryDx=0;entryDy=0;" parent="1" source="g3xv_-LL8xqr9nQWYGwZ-14" target="g3xv_-LL8xqr9nQWYGwZ-232" edge="1">
          <mxGeometry relative="1" as="geometry">
            <mxPoint x="741" y="2440" as="sourcePoint" />
            <mxPoint x="741" y="2660" as="targetPoint" />
          </mxGeometry>
        </mxCell>
        <mxCell id="g3xv_-LL8xqr9nQWYGwZ-232" value="Walking with Treasure to the Locker" style="rounded=1;whiteSpace=wrap;html=1;fillColor=#009999;fontColor=#141414;" parent="1" vertex="1">
          <mxGeometry x="635.53" y="2580" width="210.99" height="30" as="geometry" />
        </mxCell>
        <mxCell id="g3xv_-LL8xqr9nQWYGwZ-234" value="Grabber" style="swimlane;fontStyle=1;childLayout=stackLayout;horizontal=1;startSize=30;horizontalStack=0;resizeParent=1;resizeParentMax=0;resizeLast=0;collapsible=1;marginBottom=0;whiteSpace=wrap;html=1;fillColor=#009999;fontColor=#303030;" parent="1" vertex="1">
          <mxGeometry x="430" y="2450" width="210" height="100" as="geometry" />
        </mxCell>
        <mxCell id="g3xv_-LL8xqr9nQWYGwZ-235" style="edgeStyle=orthogonalEdgeStyle;rounded=0;orthogonalLoop=1;jettySize=auto;html=1;" parent="g3xv_-LL8xqr9nQWYGwZ-234" source="g3xv_-LL8xqr9nQWYGwZ-236" edge="1">
          <mxGeometry relative="1" as="geometry">
            <mxPoint x="311" y="65" as="targetPoint" />
          </mxGeometry>
        </mxCell>
        <mxCell id="g3xv_-LL8xqr9nQWYGwZ-236" value="Takes Treasure by tracing;&lt;br&gt;Enable physics;&lt;br&gt;Adds tag &quot;Grabbed&quot; on grab;&lt;br&gt;Removes tag &quot;Grabbed&quot; on release." style="text;strokeColor=none;fillColor=default;align=left;verticalAlign=middle;spacingLeft=4;spacingRight=4;overflow=hidden;points=[[0,0.5],[1,0.5]];portConstraint=eastwest;rotatable=0;whiteSpace=wrap;html=1;" parent="g3xv_-LL8xqr9nQWYGwZ-234" vertex="1">
          <mxGeometry y="30" width="210" height="70" as="geometry" />
        </mxCell>
        <mxCell id="g3xv_-LL8xqr9nQWYGwZ-237" value="TagLockerB3" style="swimlane;fontStyle=1;childLayout=stackLayout;horizontal=1;startSize=30;horizontalStack=0;resizeParent=1;resizeParentMax=0;resizeLast=0;collapsible=1;marginBottom=0;whiteSpace=wrap;html=1;fillColor=#FF66FF;fontColor=#303030;" parent="1" vertex="1">
          <mxGeometry x="863.5" y="2710" width="245" height="90" as="geometry" />
        </mxCell>
        <mxCell id="g3xv_-LL8xqr9nQWYGwZ-238" value="Check if ActorHasTag &quot;TreasureB3&quot;;&lt;br&gt;Check if ActorHasNotTag &quot;Grabbed&quot;;&lt;br&gt;Disable physics and stick Treasure with it." style="text;strokeColor=none;fillColor=default;align=left;verticalAlign=middle;spacingLeft=4;spacingRight=4;overflow=hidden;points=[[0,0.5],[1,0.5]];portConstraint=eastwest;rotatable=0;whiteSpace=wrap;html=1;" parent="g3xv_-LL8xqr9nQWYGwZ-237" vertex="1">
          <mxGeometry y="30" width="245" height="60" as="geometry" />
        </mxCell>
        <mxCell id="g3xv_-LL8xqr9nQWYGwZ-404" style="edgeStyle=orthogonalEdgeStyle;rounded=0;orthogonalLoop=1;jettySize=auto;html=1;" parent="1" source="g3xv_-LL8xqr9nQWYGwZ-239" edge="1">
          <mxGeometry relative="1" as="geometry">
            <mxPoint x="1630" y="2755" as="targetPoint" />
          </mxGeometry>
        </mxCell>
        <mxCell id="g3xv_-LL8xqr9nQWYGwZ-239" value="MoverDungeon" style="swimlane;fontStyle=1;childLayout=stackLayout;horizontal=1;startSize=30;horizontalStack=0;resizeParent=1;resizeParentMax=0;resizeLast=0;collapsible=1;marginBottom=0;whiteSpace=wrap;html=1;fillColor=#9933FF;fontColor=#303030;" parent="1" vertex="1">
          <mxGeometry x="1292.5" y="2725" width="170" height="60" as="geometry">
            <mxRectangle x="1045" y="595" width="80" height="30" as="alternateBounds" />
          </mxGeometry>
        </mxCell>
        <mxCell id="g3xv_-LL8xqr9nQWYGwZ-240" value="LockersVec.push_back(true)" style="text;strokeColor=none;fillColor=default;align=left;verticalAlign=middle;spacingLeft=4;spacingRight=4;overflow=hidden;points=[[0,0.5],[1,0.5]];portConstraint=eastwest;rotatable=0;whiteSpace=wrap;html=1;" parent="g3xv_-LL8xqr9nQWYGwZ-239" vertex="1">
          <mxGeometry y="30" width="170" height="30" as="geometry" />
        </mxCell>
        <mxCell id="g3xv_-LL8xqr9nQWYGwZ-241" style="edgeStyle=orthogonalEdgeStyle;rounded=0;orthogonalLoop=1;jettySize=auto;html=1;entryX=0;entryY=0.5;entryDx=0;entryDy=0;" parent="1" source="g3xv_-LL8xqr9nQWYGwZ-243" target="g3xv_-LL8xqr9nQWYGwZ-240" edge="1">
          <mxGeometry relative="1" as="geometry" />
        </mxCell>
        <mxCell id="g3xv_-LL8xqr9nQWYGwZ-242" value="" style="edgeStyle=orthogonalEdgeStyle;rounded=0;orthogonalLoop=1;jettySize=auto;html=1;entryX=0;entryY=0.5;entryDx=0;entryDy=0;" parent="1" source="g3xv_-LL8xqr9nQWYGwZ-238" target="g3xv_-LL8xqr9nQWYGwZ-243" edge="1">
          <mxGeometry relative="1" as="geometry">
            <mxPoint x="1105" y="2850" as="sourcePoint" />
            <mxPoint x="1219" y="2850" as="targetPoint" />
          </mxGeometry>
        </mxCell>
        <mxCell id="g3xv_-LL8xqr9nQWYGwZ-243" value="SetState(true)" style="rounded=1;whiteSpace=wrap;html=1;" parent="1" vertex="1">
          <mxGeometry x="1144.5" y="2755" width="101" height="30" as="geometry" />
        </mxCell>
        <mxCell id="g3xv_-LL8xqr9nQWYGwZ-244" style="edgeStyle=orthogonalEdgeStyle;rounded=0;orthogonalLoop=1;jettySize=auto;html=1;entryX=1;entryY=0.75;entryDx=0;entryDy=0;" parent="1" source="g3xv_-LL8xqr9nQWYGwZ-238" target="g3xv_-LL8xqr9nQWYGwZ-225" edge="1">
          <mxGeometry relative="1" as="geometry">
            <Array as="points">
              <mxPoint x="840" y="2770" />
              <mxPoint x="840" y="2690" />
            </Array>
          </mxGeometry>
        </mxCell>
        <mxCell id="g3xv_-LL8xqr9nQWYGwZ-245" value="Labyrinth Cage" style="rounded=0;whiteSpace=wrap;html=1;" parent="1" vertex="1">
          <mxGeometry x="680.99" y="2890" width="120" height="40" as="geometry" />
        </mxCell>
        <mxCell id="g3xv_-LL8xqr9nQWYGwZ-248" value="" style="edgeStyle=orthogonalEdgeStyle;rounded=0;orthogonalLoop=1;jettySize=auto;html=1;entryX=0.5;entryY=0;entryDx=0;entryDy=0;" parent="1" source="g3xv_-LL8xqr9nQWYGwZ-8" target="g3xv_-LL8xqr9nQWYGwZ-247" edge="1">
          <mxGeometry relative="1" as="geometry">
            <mxPoint x="741" y="2143" as="sourcePoint" />
            <mxPoint x="741" y="2400" as="targetPoint" />
          </mxGeometry>
        </mxCell>
        <mxCell id="g3xv_-LL8xqr9nQWYGwZ-247" value="Treasure is yours now" style="rounded=1;whiteSpace=wrap;html=1;fillColor=#FFFFFF;fontColor=#141414;" parent="1" vertex="1">
          <mxGeometry x="673.3" y="2293" width="135.37" height="30" as="geometry" />
        </mxCell>
        <mxCell id="g3xv_-LL8xqr9nQWYGwZ-250" value="" style="edgeStyle=orthogonalEdgeStyle;rounded=0;orthogonalLoop=1;jettySize=auto;html=1;entryX=0.5;entryY=0;entryDx=0;entryDy=0;" parent="1" source="g3xv_-LL8xqr9nQWYGwZ-225" target="g3xv_-LL8xqr9nQWYGwZ-249" edge="1">
          <mxGeometry relative="1" as="geometry">
            <mxPoint x="741" y="2700" as="sourcePoint" />
            <mxPoint x="741" y="2890" as="targetPoint" />
          </mxGeometry>
        </mxCell>
        <mxCell id="g3xv_-LL8xqr9nQWYGwZ-249" value="Walk in the Labyrinth,&lt;br&gt;find Cage" style="rounded=1;whiteSpace=wrap;html=1;fillColor=#FFFFFF;fontColor=#141414;" parent="1" vertex="1">
          <mxGeometry x="673.3399999999999" y="2790" width="135.37" height="30" as="geometry" />
        </mxCell>
        <mxCell id="g3xv_-LL8xqr9nQWYGwZ-254" style="edgeStyle=orthogonalEdgeStyle;rounded=0;orthogonalLoop=1;jettySize=auto;html=1;" parent="1" source="g3xv_-LL8xqr9nQWYGwZ-253" edge="1">
          <mxGeometry relative="1" as="geometry">
            <mxPoint x="740" y="2958.5" as="targetPoint" />
          </mxGeometry>
        </mxCell>
        <mxCell id="g3xv_-LL8xqr9nQWYGwZ-253" value="At this point LockD2 hide TreasureB2 and LockCage open" style="rounded=0;whiteSpace=wrap;html=1;" parent="1" vertex="1">
          <mxGeometry x="874.5" y="2940" width="195.5" height="37" as="geometry" />
        </mxCell>
        <mxCell id="g3xv_-LL8xqr9nQWYGwZ-260" style="edgeStyle=orthogonalEdgeStyle;rounded=0;orthogonalLoop=1;jettySize=auto;html=1;entryX=0.5;entryY=0;entryDx=0;entryDy=0;" parent="1" source="g3xv_-LL8xqr9nQWYGwZ-255" target="g3xv_-LL8xqr9nQWYGwZ-257" edge="1">
          <mxGeometry relative="1" as="geometry">
            <Array as="points">
              <mxPoint x="250" y="2870" />
              <mxPoint x="136" y="2870" />
            </Array>
          </mxGeometry>
        </mxCell>
        <mxCell id="g3xv_-LL8xqr9nQWYGwZ-262" style="edgeStyle=orthogonalEdgeStyle;rounded=0;orthogonalLoop=1;jettySize=auto;html=1;entryX=0.5;entryY=0;entryDx=0;entryDy=0;" parent="1" source="g3xv_-LL8xqr9nQWYGwZ-255" target="g3xv_-LL8xqr9nQWYGwZ-258" edge="1">
          <mxGeometry relative="1" as="geometry">
            <Array as="points">
              <mxPoint x="310" y="2870" />
              <mxPoint x="390" y="2870" />
            </Array>
          </mxGeometry>
        </mxCell>
        <mxCell id="g3xv_-LL8xqr9nQWYGwZ-255" value="MassTagTriggerD2" style="swimlane;fontStyle=1;childLayout=stackLayout;horizontal=1;startSize=30;horizontalStack=0;resizeParent=1;resizeParentMax=0;resizeLast=0;collapsible=1;marginBottom=0;whiteSpace=wrap;html=1;fillColor=#FF66FF;fontColor=#303030;" parent="1" vertex="1">
          <mxGeometry x="150" y="2770" width="245" height="70" as="geometry" />
        </mxCell>
        <mxCell id="g3xv_-LL8xqr9nQWYGwZ-256" value="Check Actor;&lt;br&gt;Disable physics and stick Treasure with it." style="text;strokeColor=none;fillColor=default;align=left;verticalAlign=middle;spacingLeft=4;spacingRight=4;overflow=hidden;points=[[0,0.5],[1,0.5]];portConstraint=eastwest;rotatable=0;whiteSpace=wrap;html=1;" parent="g3xv_-LL8xqr9nQWYGwZ-255" vertex="1">
          <mxGeometry y="30" width="245" height="40" as="geometry" />
        </mxCell>
        <mxCell id="_aBlnP6FN6MrEG6PL2YJ-17" style="edgeStyle=orthogonalEdgeStyle;rounded=0;orthogonalLoop=1;jettySize=auto;html=1;" parent="1" source="g3xv_-LL8xqr9nQWYGwZ-257" target="g3xv_-LL8xqr9nQWYGwZ-292" edge="1">
          <mxGeometry relative="1" as="geometry" />
        </mxCell>
        <mxCell id="g3xv_-LL8xqr9nQWYGwZ-257" value="ActorMass &amp;gt;= 35 kg" style="ellipse;whiteSpace=wrap;html=1;" parent="1" vertex="1">
          <mxGeometry x="69" y="2930" width="133" height="40" as="geometry" />
        </mxCell>
        <mxCell id="g3xv_-LL8xqr9nQWYGwZ-283" style="edgeStyle=orthogonalEdgeStyle;rounded=0;orthogonalLoop=1;jettySize=auto;html=1;entryX=0.5;entryY=0;entryDx=0;entryDy=0;" parent="1" source="g3xv_-LL8xqr9nQWYGwZ-258" target="g3xv_-LL8xqr9nQWYGwZ-280" edge="1">
          <mxGeometry relative="1" as="geometry" />
        </mxCell>
        <mxCell id="g3xv_-LL8xqr9nQWYGwZ-258" value="ActorTag == UnlockCage?" style="ellipse;whiteSpace=wrap;html=1;" parent="1" vertex="1">
          <mxGeometry x="312.25" y="2910" width="155" height="40" as="geometry" />
        </mxCell>
        <mxCell id="g3xv_-LL8xqr9nQWYGwZ-270" style="edgeStyle=orthogonalEdgeStyle;rounded=0;orthogonalLoop=1;jettySize=auto;html=1;entryX=1;entryY=0.5;entryDx=0;entryDy=0;" parent="1" source="g3xv_-LL8xqr9nQWYGwZ-265" target="g3xv_-LL8xqr9nQWYGwZ-266" edge="1">
          <mxGeometry relative="1" as="geometry">
            <Array as="points">
              <mxPoint x="1210" y="3070" />
            </Array>
          </mxGeometry>
        </mxCell>
        <mxCell id="g3xv_-LL8xqr9nQWYGwZ-263" value="Remove Treasure from TagTriggerB2 area" style="rounded=0;whiteSpace=wrap;html=1;" parent="1" vertex="1">
          <mxGeometry x="884.5" y="3180" width="165.5" height="37" as="geometry" />
        </mxCell>
        <mxCell id="g3xv_-LL8xqr9nQWYGwZ-269" style="edgeStyle=orthogonalEdgeStyle;rounded=0;orthogonalLoop=1;jettySize=auto;html=1;entryX=1;entryY=0.5;entryDx=0;entryDy=0;" parent="1" source="g3xv_-LL8xqr9nQWYGwZ-266" target="g3xv_-LL8xqr9nQWYGwZ-273" edge="1">
          <mxGeometry relative="1" as="geometry">
            <mxPoint x="920.9899999999998" y="3070" as="targetPoint" />
            <Array as="points">
              <mxPoint x="921" y="3070" />
              <mxPoint x="921" y="3070" />
            </Array>
          </mxGeometry>
        </mxCell>
        <mxCell id="g3xv_-LL8xqr9nQWYGwZ-266" value="MoverLockCage" style="swimlane;fontStyle=1;childLayout=stackLayout;horizontal=1;startSize=30;horizontalStack=0;resizeParent=1;resizeParentMax=0;resizeLast=0;collapsible=1;marginBottom=0;whiteSpace=wrap;html=1;fillColor=#9933FF;fontColor=#303030;" parent="1" vertex="1">
          <mxGeometry x="991" y="3040" width="170" height="60" as="geometry">
            <mxRectangle x="1045" y="595" width="80" height="30" as="alternateBounds" />
          </mxGeometry>
        </mxCell>
        <mxCell id="g3xv_-LL8xqr9nQWYGwZ-267" value="Opens/Closes&amp;nbsp;LockCage" style="text;strokeColor=none;fillColor=default;align=left;verticalAlign=middle;spacingLeft=4;spacingRight=4;overflow=hidden;points=[[0,0.5],[1,0.5]];portConstraint=eastwest;rotatable=0;whiteSpace=wrap;html=1;" parent="g3xv_-LL8xqr9nQWYGwZ-266" vertex="1">
          <mxGeometry y="30" width="170" height="30" as="geometry" />
        </mxCell>
        <mxCell id="g3xv_-LL8xqr9nQWYGwZ-271" value="" style="edgeStyle=orthogonalEdgeStyle;rounded=0;orthogonalLoop=1;jettySize=auto;html=1;entryX=0.49;entryY=1.001;entryDx=0;entryDy=0;entryPerimeter=0;" parent="1" source="g3xv_-LL8xqr9nQWYGwZ-263" target="g3xv_-LL8xqr9nQWYGwZ-265" edge="1">
          <mxGeometry relative="1" as="geometry">
            <mxPoint x="1014" y="3230" as="sourcePoint" />
            <mxPoint x="1182" y="3188" as="targetPoint" />
            <Array as="points">
              <mxPoint x="1209" y="3199" />
            </Array>
          </mxGeometry>
        </mxCell>
        <mxCell id="g3xv_-LL8xqr9nQWYGwZ-265" value="SetState(true) - close" style="rounded=1;whiteSpace=wrap;html=1;" parent="1" vertex="1">
          <mxGeometry x="1143.5" y="3120" width="134" height="30" as="geometry" />
        </mxCell>
        <mxCell id="g3xv_-LL8xqr9nQWYGwZ-274" value="" style="edgeStyle=orthogonalEdgeStyle;rounded=0;orthogonalLoop=1;jettySize=auto;html=1;" parent="1" source="g3xv_-LL8xqr9nQWYGwZ-245" target="g3xv_-LL8xqr9nQWYGwZ-273" edge="1">
          <mxGeometry relative="1" as="geometry">
            <mxPoint x="801" y="2910" as="sourcePoint" />
            <mxPoint x="861" y="3050" as="targetPoint" />
          </mxGeometry>
        </mxCell>
        <mxCell id="g3xv_-LL8xqr9nQWYGwZ-302" style="edgeStyle=orthogonalEdgeStyle;rounded=0;orthogonalLoop=1;jettySize=auto;html=1;entryX=0.5;entryY=0;entryDx=0;entryDy=0;" parent="1" source="g3xv_-LL8xqr9nQWYGwZ-300" target="g3xv_-LL8xqr9nQWYGwZ-12" edge="1">
          <mxGeometry relative="1" as="geometry" />
        </mxCell>
        <mxCell id="g3xv_-LL8xqr9nQWYGwZ-273" value="Door LockCage" style="rounded=0;whiteSpace=wrap;html=1;fillColor=#FFCCCC;fontColor=#000000;" parent="1" vertex="1">
          <mxGeometry x="800.99" y="3050" width="120" height="40" as="geometry" />
        </mxCell>
        <mxCell id="g3xv_-LL8xqr9nQWYGwZ-276" value="" style="edgeStyle=orthogonalEdgeStyle;rounded=0;orthogonalLoop=1;jettySize=auto;html=1;entryX=0.5;entryY=0;entryDx=0;entryDy=0;" parent="1" source="g3xv_-LL8xqr9nQWYGwZ-245" target="g3xv_-LL8xqr9nQWYGwZ-272" edge="1">
          <mxGeometry relative="1" as="geometry">
            <mxPoint x="681" y="2910" as="sourcePoint" />
            <mxPoint x="621.02" y="3050" as="targetPoint" />
          </mxGeometry>
        </mxCell>
        <mxCell id="g3xv_-LL8xqr9nQWYGwZ-301" style="edgeStyle=orthogonalEdgeStyle;rounded=0;orthogonalLoop=1;jettySize=auto;html=1;entryX=0.5;entryY=0;entryDx=0;entryDy=0;" parent="1" source="g3xv_-LL8xqr9nQWYGwZ-300" target="g3xv_-LL8xqr9nQWYGwZ-12" edge="1">
          <mxGeometry relative="1" as="geometry" />
        </mxCell>
        <mxCell id="g3xv_-LL8xqr9nQWYGwZ-272" value="Door LockD2" style="rounded=0;whiteSpace=wrap;html=1;fillColor=#FFCCCC;fontColor=#000000;" parent="1" vertex="1">
          <mxGeometry x="561.02" y="3050" width="120" height="40" as="geometry" />
        </mxCell>
        <mxCell id="g3xv_-LL8xqr9nQWYGwZ-279" style="edgeStyle=orthogonalEdgeStyle;rounded=0;orthogonalLoop=1;jettySize=auto;html=1;entryX=0;entryY=0.5;entryDx=0;entryDy=0;" parent="1" source="g3xv_-LL8xqr9nQWYGwZ-277" target="g3xv_-LL8xqr9nQWYGwZ-272" edge="1">
          <mxGeometry relative="1" as="geometry" />
        </mxCell>
        <mxCell id="g3xv_-LL8xqr9nQWYGwZ-277" value="MoverLockD2" style="swimlane;fontStyle=1;childLayout=stackLayout;horizontal=1;startSize=30;horizontalStack=0;resizeParent=1;resizeParentMax=0;resizeLast=0;collapsible=1;marginBottom=0;whiteSpace=wrap;html=1;fillColor=#9933FF;fontColor=#303030;" parent="1" vertex="1">
          <mxGeometry x="317" y="3040" width="170" height="60" as="geometry">
            <mxRectangle x="1045" y="595" width="80" height="30" as="alternateBounds" />
          </mxGeometry>
        </mxCell>
        <mxCell id="g3xv_-LL8xqr9nQWYGwZ-278" value="Opens/Closes&amp;nbsp;LockD2" style="text;strokeColor=none;fillColor=default;align=left;verticalAlign=middle;spacingLeft=4;spacingRight=4;overflow=hidden;points=[[0,0.5],[1,0.5]];portConstraint=eastwest;rotatable=0;whiteSpace=wrap;html=1;" parent="g3xv_-LL8xqr9nQWYGwZ-277" vertex="1">
          <mxGeometry y="30" width="170" height="30" as="geometry" />
        </mxCell>
        <mxCell id="g3xv_-LL8xqr9nQWYGwZ-284" style="edgeStyle=orthogonalEdgeStyle;rounded=0;orthogonalLoop=1;jettySize=auto;html=1;entryX=0.5;entryY=1;entryDx=0;entryDy=0;jumpStyle=arc;jumpSize=20;" parent="1" source="g3xv_-LL8xqr9nQWYGwZ-280" target="g3xv_-LL8xqr9nQWYGwZ-266" edge="1">
          <mxGeometry relative="1" as="geometry">
            <Array as="points">
              <mxPoint x="520" y="2985" />
              <mxPoint x="520" y="3130" />
              <mxPoint x="1076" y="3130" />
            </Array>
          </mxGeometry>
        </mxCell>
        <mxCell id="g3xv_-LL8xqr9nQWYGwZ-280" value="SetState(false) - open" style="rounded=1;whiteSpace=wrap;html=1;" parent="1" vertex="1">
          <mxGeometry x="298.25" y="2970" width="183" height="30" as="geometry" />
        </mxCell>
        <mxCell id="g3xv_-LL8xqr9nQWYGwZ-287" style="edgeStyle=orthogonalEdgeStyle;rounded=0;orthogonalLoop=1;jettySize=auto;html=1;entryX=0.643;entryY=0.013;entryDx=0;entryDy=0;entryPerimeter=0;jumpStyle=arc;" parent="1" source="g3xv_-LL8xqr9nQWYGwZ-286" target="g3xv_-LL8xqr9nQWYGwZ-189" edge="1">
          <mxGeometry relative="1" as="geometry">
            <Array as="points">
              <mxPoint x="559" y="2135" />
            </Array>
          </mxGeometry>
        </mxCell>
        <mxCell id="g3xv_-LL8xqr9nQWYGwZ-286" value="Empty" style="rounded=0;whiteSpace=wrap;html=1;" parent="1" vertex="1">
          <mxGeometry x="579" y="2120" width="61" height="30" as="geometry" />
        </mxCell>
        <mxCell id="g3xv_-LL8xqr9nQWYGwZ-296" style="edgeStyle=orthogonalEdgeStyle;rounded=0;orthogonalLoop=1;jettySize=auto;html=1;entryX=0.343;entryY=0;entryDx=0;entryDy=0;entryPerimeter=0;" parent="1" source="g3xv_-LL8xqr9nQWYGwZ-290" target="g3xv_-LL8xqr9nQWYGwZ-257" edge="1">
          <mxGeometry relative="1" as="geometry">
            <Array as="points">
              <mxPoint x="115" y="2720" />
              <mxPoint x="115" y="2930" />
            </Array>
          </mxGeometry>
        </mxCell>
        <mxCell id="g3xv_-LL8xqr9nQWYGwZ-290" value="Dummy D2&lt;br&gt;ActorTag[0] = &quot;UnlockCage&quot;" style="rounded=0;whiteSpace=wrap;html=1;" parent="1" vertex="1">
          <mxGeometry x="200" y="2700" width="160" height="40" as="geometry" />
        </mxCell>
        <mxCell id="g3xv_-LL8xqr9nQWYGwZ-295" style="edgeStyle=orthogonalEdgeStyle;rounded=0;orthogonalLoop=1;jettySize=auto;html=1;entryX=0.197;entryY=0.067;entryDx=0;entryDy=0;entryPerimeter=0;" parent="1" source="g3xv_-LL8xqr9nQWYGwZ-291" target="g3xv_-LL8xqr9nQWYGwZ-257" edge="1">
          <mxGeometry relative="1" as="geometry">
            <Array as="points">
              <mxPoint x="96" y="2640" />
              <mxPoint x="96" y="2933" />
            </Array>
          </mxGeometry>
        </mxCell>
        <mxCell id="g3xv_-LL8xqr9nQWYGwZ-291" value="Dummy D4&lt;br&gt;" style="rounded=0;whiteSpace=wrap;html=1;" parent="1" vertex="1">
          <mxGeometry x="200" y="2620" width="160" height="40" as="geometry" />
        </mxCell>
        <mxCell id="g3xv_-LL8xqr9nQWYGwZ-293" style="edgeStyle=orthogonalEdgeStyle;rounded=0;orthogonalLoop=1;jettySize=auto;html=1;entryX=0;entryY=0.5;entryDx=0;entryDy=0;" parent="1" source="g3xv_-LL8xqr9nQWYGwZ-292" target="g3xv_-LL8xqr9nQWYGwZ-277" edge="1">
          <mxGeometry relative="1" as="geometry" />
        </mxCell>
        <mxCell id="g3xv_-LL8xqr9nQWYGwZ-292" value="SetState(true) - open" style="rounded=1;whiteSpace=wrap;html=1;" parent="1" vertex="1">
          <mxGeometry x="70" y="3055" width="131" height="30" as="geometry" />
        </mxCell>
        <mxCell id="g3xv_-LL8xqr9nQWYGwZ-297" value="&lt;b style=&quot;background-color: rgb(0, 255, 0);&quot;&gt;m = 50&lt;/b&gt;" style="edgeLabel;html=1;align=center;verticalAlign=middle;resizable=0;points=[];fontColor=#000000;" parent="1" vertex="1" connectable="0">
          <mxGeometry x="540.001818181818" y="2143" as="geometry">
            <mxPoint x="-391" y="498" as="offset" />
          </mxGeometry>
        </mxCell>
        <mxCell id="g3xv_-LL8xqr9nQWYGwZ-299" value="&lt;b style=&quot;background-color: rgb(0, 255, 0);&quot;&gt;m = 40&lt;/b&gt;" style="edgeLabel;html=1;align=center;verticalAlign=middle;resizable=0;points=[];fontColor=#000000;" parent="1" vertex="1" connectable="0">
          <mxGeometry x="550.001818181818" y="2220" as="geometry">
            <mxPoint x="-391" y="498" as="offset" />
          </mxGeometry>
        </mxCell>
        <mxCell id="g3xv_-LL8xqr9nQWYGwZ-304" value="" style="edgeStyle=orthogonalEdgeStyle;rounded=0;orthogonalLoop=1;jettySize=auto;html=1;entryX=0.5;entryY=0;entryDx=0;entryDy=0;jumpStyle=arc;jumpSize=20;" parent="1" source="g3xv_-LL8xqr9nQWYGwZ-272" target="g3xv_-LL8xqr9nQWYGwZ-300" edge="1">
          <mxGeometry relative="1" as="geometry">
            <mxPoint x="621" y="3090" as="sourcePoint" />
            <mxPoint x="741" y="3240" as="targetPoint" />
            <Array as="points">
              <mxPoint x="621" y="3160" />
              <mxPoint x="741" y="3160" />
            </Array>
          </mxGeometry>
        </mxCell>
        <mxCell id="g3xv_-LL8xqr9nQWYGwZ-305" value="" style="edgeStyle=orthogonalEdgeStyle;rounded=0;orthogonalLoop=1;jettySize=auto;html=1;entryX=0.5;entryY=0;entryDx=0;entryDy=0;jumpStyle=arc;jumpSize=20;" parent="1" source="g3xv_-LL8xqr9nQWYGwZ-273" target="g3xv_-LL8xqr9nQWYGwZ-300" edge="1">
          <mxGeometry relative="1" as="geometry">
            <mxPoint x="861" y="3090" as="sourcePoint" />
            <mxPoint x="741" y="3240" as="targetPoint" />
            <Array as="points">
              <mxPoint x="861" y="3160" />
              <mxPoint x="741" y="3160" />
            </Array>
          </mxGeometry>
        </mxCell>
        <mxCell id="g3xv_-LL8xqr9nQWYGwZ-300" value="Treasure is yours now" style="rounded=1;whiteSpace=wrap;html=1;fillColor=#FFFFFF;fontColor=#141414;" parent="1" vertex="1">
          <mxGeometry x="673.3000000000001" y="3180" width="135.37" height="30" as="geometry" />
        </mxCell>
        <mxCell id="g3xv_-LL8xqr9nQWYGwZ-325" style="edgeStyle=orthogonalEdgeStyle;rounded=0;orthogonalLoop=1;jettySize=auto;html=1;entryX=0.5;entryY=0;entryDx=0;entryDy=0;" parent="1" source="g3xv_-LL8xqr9nQWYGwZ-322" target="g3xv_-LL8xqr9nQWYGwZ-15" edge="1">
          <mxGeometry relative="1" as="geometry" />
        </mxCell>
        <mxCell id="g3xv_-LL8xqr9nQWYGwZ-306" value="Locker B.2" style="rounded=0;whiteSpace=wrap;html=1;fontColor=#000000;fillColor=#E19FE3;" parent="1" vertex="1">
          <mxGeometry x="680.99" y="3420" width="120" height="40" as="geometry" />
        </mxCell>
        <mxCell id="g3xv_-LL8xqr9nQWYGwZ-310" style="edgeStyle=orthogonalEdgeStyle;rounded=0;orthogonalLoop=1;jettySize=auto;html=1;entryX=0.999;entryY=0.793;entryDx=0;entryDy=0;entryPerimeter=0;" parent="1" source="g3xv_-LL8xqr9nQWYGwZ-308" target="g3xv_-LL8xqr9nQWYGwZ-12" edge="1">
          <mxGeometry relative="1" as="geometry">
            <mxPoint x="830" y="3270" as="targetPoint" />
            <Array as="points" />
          </mxGeometry>
        </mxCell>
        <mxCell id="g3xv_-LL8xqr9nQWYGwZ-308" value="Point Light (E19FE3)" style="swimlane;fontStyle=1;childLayout=stackLayout;horizontal=1;startSize=30;horizontalStack=0;resizeParent=1;resizeParentMax=0;resizeLast=0;collapsible=1;marginBottom=0;whiteSpace=wrap;html=1;fillColor=#E19FE3;fontColor=#303030;" parent="1" vertex="1">
          <mxGeometry x="848.71" y="3230" width="280" height="80" as="geometry" />
        </mxCell>
        <mxCell id="g3xv_-LL8xqr9nQWYGwZ-309" value="Lights ON - when treasure is on the place;&lt;br&gt;Lights OFF - when treasure&amp;nbsp;is grabbed;&lt;br&gt;When switched OFF once, doesn&#39;t switched back." style="text;strokeColor=none;fillColor=default;align=left;verticalAlign=middle;spacingLeft=4;spacingRight=4;overflow=hidden;points=[[0,0.5],[1,0.5]];portConstraint=eastwest;rotatable=0;whiteSpace=wrap;html=1;" parent="g3xv_-LL8xqr9nQWYGwZ-308" vertex="1">
          <mxGeometry y="30" width="280" height="50" as="geometry" />
        </mxCell>
        <mxCell id="g3xv_-LL8xqr9nQWYGwZ-313" style="edgeStyle=orthogonalEdgeStyle;rounded=0;orthogonalLoop=1;jettySize=auto;html=1;entryX=1;entryY=0.5;entryDx=0;entryDy=0;" parent="1" source="g3xv_-LL8xqr9nQWYGwZ-311" target="g3xv_-LL8xqr9nQWYGwZ-306" edge="1">
          <mxGeometry relative="1" as="geometry" />
        </mxCell>
        <mxCell id="g3xv_-LL8xqr9nQWYGwZ-311" value="Point Light (E19FE3)" style="swimlane;fontStyle=1;childLayout=stackLayout;horizontal=1;startSize=30;horizontalStack=0;resizeParent=1;resizeParentMax=0;resizeLast=0;collapsible=1;marginBottom=0;whiteSpace=wrap;html=1;fillColor=#E19FE3;fontColor=#303030;" parent="1" vertex="1">
          <mxGeometry x="921.49" y="3400" width="280" height="80" as="geometry" />
        </mxCell>
        <mxCell id="g3xv_-LL8xqr9nQWYGwZ-312" value="Lights ON - when there is no Accepteble Objects;&lt;br&gt;Lights OFF - when there is Accepted Object;&lt;br&gt;When switched OFF once, doesn&#39;t switched back." style="text;strokeColor=none;fillColor=default;align=left;verticalAlign=middle;spacingLeft=4;spacingRight=4;overflow=hidden;points=[[0,0.5],[1,0.5]];portConstraint=eastwest;rotatable=0;whiteSpace=wrap;html=1;" parent="g3xv_-LL8xqr9nQWYGwZ-311" vertex="1">
          <mxGeometry y="30" width="280" height="50" as="geometry" />
        </mxCell>
        <mxCell id="g3xv_-LL8xqr9nQWYGwZ-315" style="edgeStyle=orthogonalEdgeStyle;rounded=0;orthogonalLoop=1;jettySize=auto;html=1;" parent="1" source="g3xv_-LL8xqr9nQWYGwZ-314" edge="1">
          <mxGeometry relative="1" as="geometry">
            <mxPoint x="740" y="3300" as="targetPoint" />
            <Array as="points">
              <mxPoint x="580" y="3155" />
              <mxPoint x="580" y="3300" />
              <mxPoint x="740" y="3300" />
            </Array>
          </mxGeometry>
        </mxCell>
        <mxCell id="g3xv_-LL8xqr9nQWYGwZ-314" value="You can aquire TreasureB2 with DummyD2 or DummyD4, but only DummyD2 will allow you go thru door LockCage" style="rounded=0;whiteSpace=wrap;html=1;" parent="1" vertex="1">
          <mxGeometry x="261.51" y="3120" width="240.99" height="70" as="geometry" />
        </mxCell>
        <mxCell id="g3xv_-LL8xqr9nQWYGwZ-317" value="" style="edgeStyle=orthogonalEdgeStyle;rounded=0;orthogonalLoop=1;jettySize=auto;html=1;entryX=0.5;entryY=0;entryDx=0;entryDy=0;" parent="1" source="g3xv_-LL8xqr9nQWYGwZ-12" target="g3xv_-LL8xqr9nQWYGwZ-316" edge="1">
          <mxGeometry relative="1" as="geometry">
            <mxPoint x="741" y="3280" as="sourcePoint" />
            <mxPoint x="741" y="3420" as="targetPoint" />
          </mxGeometry>
        </mxCell>
        <mxCell id="g3xv_-LL8xqr9nQWYGwZ-316" value="Walking with Treasure to the Locker" style="rounded=1;whiteSpace=wrap;html=1;fillColor=#009999;fontColor=#141414;" parent="1" vertex="1">
          <mxGeometry x="638.34" y="3370" width="204.5" height="30" as="geometry" />
        </mxCell>
        <mxCell id="g3xv_-LL8xqr9nQWYGwZ-319" value="Grabber" style="swimlane;fontStyle=1;childLayout=stackLayout;horizontal=1;startSize=30;horizontalStack=0;resizeParent=1;resizeParentMax=0;resizeLast=0;collapsible=1;marginBottom=0;whiteSpace=wrap;html=1;fillColor=#009999;fontColor=#303030;" parent="1" vertex="1">
          <mxGeometry x="284.75" y="3220" width="210" height="100" as="geometry" />
        </mxCell>
        <mxCell id="g3xv_-LL8xqr9nQWYGwZ-320" style="edgeStyle=orthogonalEdgeStyle;rounded=0;orthogonalLoop=1;jettySize=auto;html=1;exitX=1;exitY=0.019;exitDx=0;exitDy=0;exitPerimeter=0;" parent="g3xv_-LL8xqr9nQWYGwZ-319" source="g3xv_-LL8xqr9nQWYGwZ-321" edge="1">
          <mxGeometry relative="1" as="geometry">
            <mxPoint x="455.25" y="100" as="targetPoint" />
            <Array as="points">
              <mxPoint x="210" y="30" />
              <mxPoint x="255" y="30" />
              <mxPoint x="255" y="100" />
              <mxPoint x="455" y="100" />
            </Array>
          </mxGeometry>
        </mxCell>
        <mxCell id="g3xv_-LL8xqr9nQWYGwZ-321" value="Takes Treasure by tracing;&lt;br&gt;Enable physics;&lt;br&gt;Adds tag &quot;Grabbed&quot; on grab;&lt;br&gt;Removes tag &quot;Grabbed&quot; on release." style="text;strokeColor=none;fillColor=default;align=left;verticalAlign=middle;spacingLeft=4;spacingRight=4;overflow=hidden;points=[[0,0.5],[1,0.5]];portConstraint=eastwest;rotatable=0;whiteSpace=wrap;html=1;" parent="g3xv_-LL8xqr9nQWYGwZ-319" vertex="1">
          <mxGeometry y="30" width="210" height="70" as="geometry" />
        </mxCell>
        <mxCell id="g3xv_-LL8xqr9nQWYGwZ-324" style="edgeStyle=orthogonalEdgeStyle;rounded=0;orthogonalLoop=1;jettySize=auto;html=1;entryX=0.5;entryY=0;entryDx=0;entryDy=0;" parent="1" source="g3xv_-LL8xqr9nQWYGwZ-323" target="g3xv_-LL8xqr9nQWYGwZ-1" edge="1">
          <mxGeometry relative="1" as="geometry" />
        </mxCell>
        <mxCell id="g3xv_-LL8xqr9nQWYGwZ-323" value="Look around try to find something" style="rounded=1;whiteSpace=wrap;html=1;fillColor=#FFFFFF;fontColor=#141414;" parent="1" vertex="1">
          <mxGeometry x="676.28" y="10" width="129.5" height="30" as="geometry" />
        </mxCell>
        <mxCell id="g3xv_-LL8xqr9nQWYGwZ-326" value="" style="edgeStyle=orthogonalEdgeStyle;rounded=0;orthogonalLoop=1;jettySize=auto;html=1;entryX=0.5;entryY=0;entryDx=0;entryDy=0;" parent="1" source="g3xv_-LL8xqr9nQWYGwZ-306" target="g3xv_-LL8xqr9nQWYGwZ-322" edge="1">
          <mxGeometry relative="1" as="geometry">
            <mxPoint x="741" y="3460" as="sourcePoint" />
            <mxPoint x="741" y="3560" as="targetPoint" />
          </mxGeometry>
        </mxCell>
        <mxCell id="g3xv_-LL8xqr9nQWYGwZ-322" value="Walk in the Labyrinth,&lt;br&gt;find KeyT" style="rounded=1;whiteSpace=wrap;html=1;fillColor=#FFFFFF;fontColor=#141414;" parent="1" vertex="1">
          <mxGeometry x="673.34" y="3500" width="135.37" height="30" as="geometry" />
        </mxCell>
        <mxCell id="g3xv_-LL8xqr9nQWYGwZ-201" value="" style="edgeStyle=orthogonalEdgeStyle;rounded=0;orthogonalLoop=1;jettySize=auto;html=1;entryX=0.287;entryY=0.997;entryDx=0;entryDy=0;entryPerimeter=0;jumpStyle=arc;jumpSize=8;" parent="1" source="g3xv_-LL8xqr9nQWYGwZ-188" target="g3xv_-LL8xqr9nQWYGwZ-200" edge="1">
          <mxGeometry relative="1" as="geometry">
            <mxPoint x="503" y="2278" as="sourcePoint" />
            <mxPoint x="681" y="2113" as="targetPoint" />
            <Array as="points">
              <mxPoint x="620" y="2278" />
              <mxPoint x="620" y="2243" />
            </Array>
          </mxGeometry>
        </mxCell>
        <mxCell id="g3xv_-LL8xqr9nQWYGwZ-334" style="edgeStyle=orthogonalEdgeStyle;rounded=0;orthogonalLoop=1;jettySize=auto;html=1;entryX=1;entryY=0.75;entryDx=0;entryDy=0;" parent="1" source="g3xv_-LL8xqr9nQWYGwZ-327" target="g3xv_-LL8xqr9nQWYGwZ-306" edge="1">
          <mxGeometry relative="1" as="geometry" />
        </mxCell>
        <mxCell id="g3xv_-LL8xqr9nQWYGwZ-327" value="TagLockerB2" style="swimlane;fontStyle=1;childLayout=stackLayout;horizontal=1;startSize=30;horizontalStack=0;resizeParent=1;resizeParentMax=0;resizeLast=0;collapsible=1;marginBottom=0;whiteSpace=wrap;html=1;fillColor=#FF66FF;fontColor=#303030;" parent="1" vertex="1">
          <mxGeometry x="920.99" y="3500" width="245" height="90" as="geometry" />
        </mxCell>
        <mxCell id="g3xv_-LL8xqr9nQWYGwZ-328" value="Check if ActorHasTag &quot;TreasureB2&quot;;&lt;br&gt;Check if ActorHasNotTag &quot;Grabbed&quot;;&lt;br&gt;Disable physics and stick Treasure with it." style="text;strokeColor=none;fillColor=default;align=left;verticalAlign=middle;spacingLeft=4;spacingRight=4;overflow=hidden;points=[[0,0.5],[1,0.5]];portConstraint=eastwest;rotatable=0;whiteSpace=wrap;html=1;" parent="g3xv_-LL8xqr9nQWYGwZ-327" vertex="1">
          <mxGeometry y="30" width="245" height="60" as="geometry" />
        </mxCell>
        <mxCell id="g3xv_-LL8xqr9nQWYGwZ-403" style="edgeStyle=orthogonalEdgeStyle;rounded=0;orthogonalLoop=1;jettySize=auto;html=1;" parent="1" source="g3xv_-LL8xqr9nQWYGwZ-329" edge="1">
          <mxGeometry relative="1" as="geometry">
            <mxPoint x="1630" y="3545" as="targetPoint" />
          </mxGeometry>
        </mxCell>
        <mxCell id="g3xv_-LL8xqr9nQWYGwZ-329" value="MoverDungeon" style="swimlane;fontStyle=1;childLayout=stackLayout;horizontal=1;startSize=30;horizontalStack=0;resizeParent=1;resizeParentMax=0;resizeLast=0;collapsible=1;marginBottom=0;whiteSpace=wrap;html=1;fillColor=#9933FF;fontColor=#303030;" parent="1" vertex="1">
          <mxGeometry x="1349.99" y="3515" width="170" height="60" as="geometry">
            <mxRectangle x="1045" y="595" width="80" height="30" as="alternateBounds" />
          </mxGeometry>
        </mxCell>
        <mxCell id="g3xv_-LL8xqr9nQWYGwZ-330" value="LockersVec.push_back(true)" style="text;strokeColor=none;fillColor=default;align=left;verticalAlign=middle;spacingLeft=4;spacingRight=4;overflow=hidden;points=[[0,0.5],[1,0.5]];portConstraint=eastwest;rotatable=0;whiteSpace=wrap;html=1;" parent="g3xv_-LL8xqr9nQWYGwZ-329" vertex="1">
          <mxGeometry y="30" width="170" height="30" as="geometry" />
        </mxCell>
        <mxCell id="g3xv_-LL8xqr9nQWYGwZ-331" style="edgeStyle=orthogonalEdgeStyle;rounded=0;orthogonalLoop=1;jettySize=auto;html=1;entryX=0;entryY=0.5;entryDx=0;entryDy=0;" parent="1" source="g3xv_-LL8xqr9nQWYGwZ-333" target="g3xv_-LL8xqr9nQWYGwZ-330" edge="1">
          <mxGeometry relative="1" as="geometry" />
        </mxCell>
        <mxCell id="g3xv_-LL8xqr9nQWYGwZ-332" value="" style="edgeStyle=orthogonalEdgeStyle;rounded=0;orthogonalLoop=1;jettySize=auto;html=1;entryX=0;entryY=0.5;entryDx=0;entryDy=0;" parent="1" source="g3xv_-LL8xqr9nQWYGwZ-328" target="g3xv_-LL8xqr9nQWYGwZ-333" edge="1">
          <mxGeometry relative="1" as="geometry">
            <mxPoint x="1162.49" y="3640" as="sourcePoint" />
            <mxPoint x="1276.49" y="3640" as="targetPoint" />
          </mxGeometry>
        </mxCell>
        <mxCell id="g3xv_-LL8xqr9nQWYGwZ-333" value="SetState(true)" style="rounded=1;whiteSpace=wrap;html=1;" parent="1" vertex="1">
          <mxGeometry x="1201.99" y="3545" width="101" height="30" as="geometry" />
        </mxCell>
        <mxCell id="g3xv_-LL8xqr9nQWYGwZ-337" style="edgeStyle=orthogonalEdgeStyle;rounded=0;orthogonalLoop=1;jettySize=auto;html=1;entryX=1;entryY=0.5;entryDx=0;entryDy=0;" parent="1" source="g3xv_-LL8xqr9nQWYGwZ-335" target="g3xv_-LL8xqr9nQWYGwZ-15" edge="1">
          <mxGeometry relative="1" as="geometry">
            <Array as="points">
              <mxPoint x="841" y="3660" />
              <mxPoint x="841" y="3580" />
            </Array>
          </mxGeometry>
        </mxCell>
        <mxCell id="g3xv_-LL8xqr9nQWYGwZ-335" value="Point Light (33FF99)" style="swimlane;fontStyle=1;childLayout=stackLayout;horizontal=1;startSize=30;horizontalStack=0;resizeParent=1;resizeParentMax=0;resizeLast=0;collapsible=1;marginBottom=0;whiteSpace=wrap;html=1;fillColor=#33FF99;fontColor=#303030;" parent="1" vertex="1">
          <mxGeometry x="920.99" y="3620" width="280" height="80" as="geometry" />
        </mxCell>
        <mxCell id="g3xv_-LL8xqr9nQWYGwZ-336" value="Lights ON - when key is on the place;&lt;br&gt;Lights OFF - when key is grabbed;&lt;br&gt;When switched OFF once, doesn&#39;t switched back." style="text;strokeColor=none;fillColor=default;align=left;verticalAlign=middle;spacingLeft=4;spacingRight=4;overflow=hidden;points=[[0,0.5],[1,0.5]];portConstraint=eastwest;rotatable=0;whiteSpace=wrap;html=1;" parent="g3xv_-LL8xqr9nQWYGwZ-335" vertex="1">
          <mxGeometry y="30" width="280" height="50" as="geometry" />
        </mxCell>
        <mxCell id="g3xv_-LL8xqr9nQWYGwZ-344" style="edgeStyle=orthogonalEdgeStyle;rounded=0;orthogonalLoop=1;jettySize=auto;html=1;" parent="1" source="g3xv_-LL8xqr9nQWYGwZ-340" edge="1">
          <mxGeometry relative="1" as="geometry">
            <mxPoint x="740" y="3650" as="targetPoint" />
            <Array as="points">
              <mxPoint x="550" y="3650" />
              <mxPoint x="550" y="3650" />
            </Array>
          </mxGeometry>
        </mxCell>
        <mxCell id="g3xv_-LL8xqr9nQWYGwZ-340" value="Grabber" style="swimlane;fontStyle=1;childLayout=stackLayout;horizontal=1;startSize=30;horizontalStack=0;resizeParent=1;resizeParentMax=0;resizeLast=0;collapsible=1;marginBottom=0;whiteSpace=wrap;html=1;fillColor=#009999;fontColor=#303030;" parent="1" vertex="1">
          <mxGeometry x="360" y="3600" width="210" height="100" as="geometry" />
        </mxCell>
        <mxCell id="g3xv_-LL8xqr9nQWYGwZ-341" value="Takes Key by tracing;&lt;br&gt;Enable physics;&lt;br&gt;Adds tag &quot;Grabbed&quot; on grab;&lt;br&gt;Removes tag &quot;Grabbed&quot; on release." style="text;strokeColor=none;fillColor=default;align=left;verticalAlign=middle;spacingLeft=4;spacingRight=4;overflow=hidden;points=[[0,0.5],[1,0.5]];portConstraint=eastwest;rotatable=0;whiteSpace=wrap;html=1;" parent="g3xv_-LL8xqr9nQWYGwZ-340" vertex="1">
          <mxGeometry y="30" width="210" height="70" as="geometry" />
        </mxCell>
        <mxCell id="g3xv_-LL8xqr9nQWYGwZ-343" value="" style="edgeStyle=orthogonalEdgeStyle;rounded=0;orthogonalLoop=1;jettySize=auto;html=1;entryX=0.5;entryY=0;entryDx=0;entryDy=0;" parent="1" source="g3xv_-LL8xqr9nQWYGwZ-15" target="g3xv_-LL8xqr9nQWYGwZ-338" edge="1">
          <mxGeometry relative="1" as="geometry">
            <mxPoint x="741" y="3600" as="sourcePoint" />
            <mxPoint x="741" y="3720" as="targetPoint" />
          </mxGeometry>
        </mxCell>
        <mxCell id="g3xv_-LL8xqr9nQWYGwZ-338" value="Walking with Key S" style="rounded=1;whiteSpace=wrap;html=1;fillColor=#009999;fontColor=#141414;" parent="1" vertex="1">
          <mxGeometry x="676.28" y="3680" width="129.5" height="30" as="geometry" />
        </mxCell>
        <mxCell id="g3xv_-LL8xqr9nQWYGwZ-350" style="edgeStyle=orthogonalEdgeStyle;rounded=0;orthogonalLoop=1;jettySize=auto;html=1;entryX=1;entryY=0.5;entryDx=0;entryDy=0;" parent="1" source="g3xv_-LL8xqr9nQWYGwZ-345" target="g3xv_-LL8xqr9nQWYGwZ-348" edge="1">
          <mxGeometry relative="1" as="geometry">
            <Array as="points">
              <mxPoint x="850" y="3780" />
              <mxPoint x="850" y="3780" />
            </Array>
          </mxGeometry>
        </mxCell>
        <mxCell id="g3xv_-LL8xqr9nQWYGwZ-345" value="Point Light (33FF99)" style="swimlane;fontStyle=1;childLayout=stackLayout;horizontal=1;startSize=30;horizontalStack=0;resizeParent=1;resizeParentMax=0;resizeLast=0;collapsible=1;marginBottom=0;whiteSpace=wrap;html=1;fillColor=#33FF99;fontColor=#000000;" parent="1" vertex="1">
          <mxGeometry x="920.99" y="3740" width="280" height="80" as="geometry" />
        </mxCell>
        <mxCell id="g3xv_-LL8xqr9nQWYGwZ-346" value="Lights ON - when there is no Accepteble Objects;&lt;br&gt;Lights OFF - when there is Accepted Object;&lt;br&gt;When switched OFF once, doesn&#39;t switched back." style="text;strokeColor=none;fillColor=default;align=left;verticalAlign=middle;spacingLeft=4;spacingRight=4;overflow=hidden;points=[[0,0.5],[1,0.5]];portConstraint=eastwest;rotatable=0;whiteSpace=wrap;html=1;" parent="g3xv_-LL8xqr9nQWYGwZ-345" vertex="1">
          <mxGeometry y="30" width="280" height="50" as="geometry" />
        </mxCell>
        <mxCell id="g3xv_-LL8xqr9nQWYGwZ-349" value="" style="edgeStyle=orthogonalEdgeStyle;rounded=0;orthogonalLoop=1;jettySize=auto;html=1;entryX=0.5;entryY=0;entryDx=0;entryDy=0;" parent="1" source="g3xv_-LL8xqr9nQWYGwZ-338" target="g3xv_-LL8xqr9nQWYGwZ-348" edge="1">
          <mxGeometry relative="1" as="geometry">
            <mxPoint x="741" y="3710" as="sourcePoint" />
            <mxPoint x="741" y="3840" as="targetPoint" />
          </mxGeometry>
        </mxCell>
        <mxCell id="g3xv_-LL8xqr9nQWYGwZ-348" value="TagTriggerT area" style="rounded=0;whiteSpace=wrap;html=1;fontColor=#000000;fillColor=#33FF99;" parent="1" vertex="1">
          <mxGeometry x="681.03" y="3760" width="120" height="40" as="geometry" />
        </mxCell>
        <mxCell id="g3xv_-LL8xqr9nQWYGwZ-353" style="edgeStyle=orthogonalEdgeStyle;rounded=0;orthogonalLoop=1;jettySize=auto;html=1;entryX=0;entryY=0.5;entryDx=0;entryDy=0;" parent="1" source="g3xv_-LL8xqr9nQWYGwZ-351" target="g3xv_-LL8xqr9nQWYGwZ-348" edge="1">
          <mxGeometry relative="1" as="geometry" />
        </mxCell>
        <mxCell id="g3xv_-LL8xqr9nQWYGwZ-358" style="edgeStyle=orthogonalEdgeStyle;rounded=0;orthogonalLoop=1;jettySize=auto;html=1;entryX=-0.005;entryY=0.006;entryDx=0;entryDy=0;entryPerimeter=0;" parent="1" source="g3xv_-LL8xqr9nQWYGwZ-357" target="g3xv_-LL8xqr9nQWYGwZ-355" edge="1">
          <mxGeometry relative="1" as="geometry">
            <Array as="points">
              <mxPoint x="431" y="3900" />
            </Array>
          </mxGeometry>
        </mxCell>
        <mxCell id="g3xv_-LL8xqr9nQWYGwZ-360" style="edgeStyle=orthogonalEdgeStyle;rounded=0;orthogonalLoop=1;jettySize=auto;html=1;entryX=0.5;entryY=0;entryDx=0;entryDy=0;" parent="1" source="g3xv_-LL8xqr9nQWYGwZ-351" target="g3xv_-LL8xqr9nQWYGwZ-357" edge="1">
          <mxGeometry relative="1" as="geometry">
            <Array as="points">
              <mxPoint x="431" y="3840" />
              <mxPoint x="431" y="3840" />
            </Array>
          </mxGeometry>
        </mxCell>
        <mxCell id="g3xv_-LL8xqr9nQWYGwZ-351" value="TagTriggerT" style="swimlane;fontStyle=1;childLayout=stackLayout;horizontal=1;startSize=30;horizontalStack=0;resizeParent=1;resizeParentMax=0;resizeLast=0;collapsible=1;marginBottom=0;whiteSpace=wrap;html=1;fillColor=#FF66FF;fontColor=#303030;" parent="1" vertex="1">
          <mxGeometry x="370" y="3735" width="245" height="90" as="geometry" />
        </mxCell>
        <mxCell id="g3xv_-LL8xqr9nQWYGwZ-352" value="Check if ActorHasTag &quot;KeyT&quot;;&lt;br&gt;Check if ActorHasNotTag &quot;Grabbed&quot;;&lt;br&gt;Disable physics and move key with it." style="text;strokeColor=none;fillColor=default;align=left;verticalAlign=middle;spacingLeft=4;spacingRight=4;overflow=hidden;points=[[0,0.5],[1,0.5]];portConstraint=eastwest;rotatable=0;whiteSpace=wrap;html=1;" parent="g3xv_-LL8xqr9nQWYGwZ-351" vertex="1">
          <mxGeometry y="30" width="245" height="60" as="geometry" />
        </mxCell>
        <mxCell id="g3xv_-LL8xqr9nQWYGwZ-356" style="edgeStyle=orthogonalEdgeStyle;rounded=0;orthogonalLoop=1;jettySize=auto;html=1;entryX=0;entryY=0.5;entryDx=0;entryDy=0;" parent="1" source="g3xv_-LL8xqr9nQWYGwZ-354" target="g3xv_-LL8xqr9nQWYGwZ-16" edge="1">
          <mxGeometry relative="1" as="geometry" />
        </mxCell>
        <mxCell id="g3xv_-LL8xqr9nQWYGwZ-367" style="edgeStyle=orthogonalEdgeStyle;rounded=0;orthogonalLoop=1;jettySize=auto;html=1;entryX=0.5;entryY=0;entryDx=0;entryDy=0;" parent="1" source="g3xv_-LL8xqr9nQWYGwZ-354" target="g3xv_-LL8xqr9nQWYGwZ-366" edge="1">
          <mxGeometry relative="1" as="geometry" />
        </mxCell>
        <mxCell id="g3xv_-LL8xqr9nQWYGwZ-354" value="MoverLabSecret" style="swimlane;fontStyle=1;childLayout=stackLayout;horizontal=1;startSize=30;horizontalStack=0;resizeParent=1;resizeParentMax=0;resizeLast=0;collapsible=1;marginBottom=0;whiteSpace=wrap;html=1;fillColor=#9933FF;fontColor=#303030;" parent="1" vertex="1">
          <mxGeometry x="510" y="3870" width="130" height="60" as="geometry">
            <mxRectangle x="1045" y="595" width="80" height="30" as="alternateBounds" />
          </mxGeometry>
        </mxCell>
        <mxCell id="g3xv_-LL8xqr9nQWYGwZ-355" value="Move door UP once" style="text;strokeColor=none;fillColor=default;align=left;verticalAlign=middle;spacingLeft=4;spacingRight=4;overflow=hidden;points=[[0,0.5],[1,0.5]];portConstraint=eastwest;rotatable=0;whiteSpace=wrap;html=1;" parent="g3xv_-LL8xqr9nQWYGwZ-354" vertex="1">
          <mxGeometry y="30" width="130" height="30" as="geometry" />
        </mxCell>
        <mxCell id="g3xv_-LL8xqr9nQWYGwZ-357" value="SetState(true)" style="rounded=1;whiteSpace=wrap;html=1;" parent="1" vertex="1">
          <mxGeometry x="380.25" y="3850" width="101" height="30" as="geometry" />
        </mxCell>
        <mxCell id="g3xv_-LL8xqr9nQWYGwZ-361" style="edgeStyle=orthogonalEdgeStyle;rounded=0;orthogonalLoop=1;jettySize=auto;html=1;entryX=0.5;entryY=0;entryDx=0;entryDy=0;" parent="1" source="g3xv_-LL8xqr9nQWYGwZ-366" target="g3xv_-LL8xqr9nQWYGwZ-365" edge="1">
          <mxGeometry relative="1" as="geometry">
            <mxPoint x="620" y="3995" as="targetPoint" />
            <Array as="points">
              <mxPoint x="460" y="4005" />
            </Array>
          </mxGeometry>
        </mxCell>
        <mxCell id="g3xv_-LL8xqr9nQWYGwZ-368" style="edgeStyle=orthogonalEdgeStyle;rounded=0;orthogonalLoop=1;jettySize=auto;html=1;entryX=0;entryY=0.5;entryDx=0;entryDy=0;" parent="1" source="g3xv_-LL8xqr9nQWYGwZ-362" target="g3xv_-LL8xqr9nQWYGwZ-17" edge="1">
          <mxGeometry relative="1" as="geometry" />
        </mxCell>
        <mxCell id="g3xv_-LL8xqr9nQWYGwZ-362" value="MoverL1" style="swimlane;fontStyle=1;childLayout=stackLayout;horizontal=1;startSize=30;horizontalStack=0;resizeParent=1;resizeParentMax=0;resizeLast=0;collapsible=1;marginBottom=0;whiteSpace=wrap;html=1;fillColor=#9933FF;fontColor=#303030;" parent="1" vertex="1">
          <mxGeometry x="400" y="4125" width="120" height="60" as="geometry">
            <mxRectangle x="1045" y="595" width="80" height="30" as="alternateBounds" />
          </mxGeometry>
        </mxCell>
        <mxCell id="g3xv_-LL8xqr9nQWYGwZ-363" value="Move Door up" style="text;strokeColor=none;fillColor=default;align=left;verticalAlign=middle;spacingLeft=4;spacingRight=4;overflow=hidden;points=[[0,0.5],[1,0.5]];portConstraint=eastwest;rotatable=0;whiteSpace=wrap;html=1;" parent="g3xv_-LL8xqr9nQWYGwZ-362" vertex="1">
          <mxGeometry y="30" width="120" height="30" as="geometry" />
        </mxCell>
        <mxCell id="g3xv_-LL8xqr9nQWYGwZ-364" style="edgeStyle=orthogonalEdgeStyle;rounded=0;orthogonalLoop=1;jettySize=auto;html=1;entryX=0.5;entryY=0;entryDx=0;entryDy=0;" parent="1" source="g3xv_-LL8xqr9nQWYGwZ-365" target="g3xv_-LL8xqr9nQWYGwZ-362" edge="1">
          <mxGeometry relative="1" as="geometry" />
        </mxCell>
        <mxCell id="g3xv_-LL8xqr9nQWYGwZ-365" value="SetState(state)" style="rounded=1;whiteSpace=wrap;html=1;" parent="1" vertex="1">
          <mxGeometry x="409.5" y="4065" width="101" height="30" as="geometry" />
        </mxCell>
        <mxCell id="g3xv_-LL8xqr9nQWYGwZ-366" value="state = GetState()" style="rounded=1;whiteSpace=wrap;html=1;" parent="1" vertex="1">
          <mxGeometry x="409.5" y="3980" width="101" height="30" as="geometry" />
        </mxCell>
        <mxCell id="g3xv_-LL8xqr9nQWYGwZ-371" value="Locker A.1" style="rounded=0;whiteSpace=wrap;html=1;fontColor=#000000;fillColor=#7497D4;" parent="1" vertex="1">
          <mxGeometry x="680.2099999999999" y="4410" width="120" height="40" as="geometry" />
        </mxCell>
        <mxCell id="g3xv_-LL8xqr9nQWYGwZ-373" value="" style="edgeStyle=orthogonalEdgeStyle;rounded=0;orthogonalLoop=1;jettySize=auto;html=1;entryX=0.5;entryY=0;entryDx=0;entryDy=0;" parent="1" source="g3xv_-LL8xqr9nQWYGwZ-16" target="g3xv_-LL8xqr9nQWYGwZ-372" edge="1">
          <mxGeometry relative="1" as="geometry">
            <mxPoint x="741" y="3920" as="sourcePoint" />
            <mxPoint x="741" y="4150" as="targetPoint" />
          </mxGeometry>
        </mxCell>
        <mxCell id="g3xv_-LL8xqr9nQWYGwZ-372" value="Walk into the secret section and find Treasure A.1" style="rounded=1;whiteSpace=wrap;html=1;fillColor=#FFFFFF;fontColor=#141414;" parent="1" vertex="1">
          <mxGeometry x="655.36" y="4085" width="171.33" height="40" as="geometry" />
        </mxCell>
        <mxCell id="g3xv_-LL8xqr9nQWYGwZ-382" style="edgeStyle=orthogonalEdgeStyle;rounded=0;orthogonalLoop=1;jettySize=auto;html=1;entryX=1;entryY=0.5;entryDx=0;entryDy=0;" parent="1" source="g3xv_-LL8xqr9nQWYGwZ-374" target="g3xv_-LL8xqr9nQWYGwZ-18" edge="1">
          <mxGeometry relative="1" as="geometry" />
        </mxCell>
        <mxCell id="g3xv_-LL8xqr9nQWYGwZ-374" value="Point Light (7497D4)" style="swimlane;fontStyle=1;childLayout=stackLayout;horizontal=1;startSize=30;horizontalStack=0;resizeParent=1;resizeParentMax=0;resizeLast=0;collapsible=1;marginBottom=0;whiteSpace=wrap;html=1;fillColor=#7497D4;fontColor=#303030;" parent="1" vertex="1">
          <mxGeometry x="863.5" y="4085" width="280" height="80" as="geometry" />
        </mxCell>
        <mxCell id="g3xv_-LL8xqr9nQWYGwZ-375" value="Lights ON - when treasure is on the place;&lt;br&gt;Lights OFF - when treasure&amp;nbsp;is grabbed;&lt;br&gt;When switched OFF once, doesn&#39;t switched back." style="text;strokeColor=none;fillColor=default;align=left;verticalAlign=middle;spacingLeft=4;spacingRight=4;overflow=hidden;points=[[0,0.5],[1,0.5]];portConstraint=eastwest;rotatable=0;whiteSpace=wrap;html=1;" parent="g3xv_-LL8xqr9nQWYGwZ-374" vertex="1">
          <mxGeometry y="30" width="280" height="50" as="geometry" />
        </mxCell>
        <mxCell id="g3xv_-LL8xqr9nQWYGwZ-381" style="edgeStyle=orthogonalEdgeStyle;rounded=0;orthogonalLoop=1;jettySize=auto;html=1;entryX=1;entryY=0.5;entryDx=0;entryDy=0;" parent="1" source="g3xv_-LL8xqr9nQWYGwZ-379" target="g3xv_-LL8xqr9nQWYGwZ-371" edge="1">
          <mxGeometry relative="1" as="geometry" />
        </mxCell>
        <mxCell id="g3xv_-LL8xqr9nQWYGwZ-379" value="Point Light (7497D4)" style="swimlane;fontStyle=1;childLayout=stackLayout;horizontal=1;startSize=30;horizontalStack=0;resizeParent=1;resizeParentMax=0;resizeLast=0;collapsible=1;marginBottom=0;whiteSpace=wrap;html=1;fillColor=#7497D4;fontColor=#303030;" parent="1" vertex="1">
          <mxGeometry x="858.7299999999999" y="4350" width="280" height="80" as="geometry" />
        </mxCell>
        <mxCell id="g3xv_-LL8xqr9nQWYGwZ-380" value="Lights ON - when there is no Accepteble Objects;&lt;br&gt;Lights OFF - when there is Accepted Object;&lt;br&gt;When switched OFF once, doesn&#39;t switched back." style="text;strokeColor=none;fillColor=default;align=left;verticalAlign=middle;spacingLeft=4;spacingRight=4;overflow=hidden;points=[[0,0.5],[1,0.5]];portConstraint=eastwest;rotatable=0;whiteSpace=wrap;html=1;" parent="g3xv_-LL8xqr9nQWYGwZ-379" vertex="1">
          <mxGeometry y="30" width="280" height="50" as="geometry" />
        </mxCell>
        <mxCell id="g3xv_-LL8xqr9nQWYGwZ-385" value="" style="edgeStyle=orthogonalEdgeStyle;rounded=0;orthogonalLoop=1;jettySize=auto;html=1;entryX=0.5;entryY=0;entryDx=0;entryDy=0;" parent="1" source="g3xv_-LL8xqr9nQWYGwZ-18" target="g3xv_-LL8xqr9nQWYGwZ-383" edge="1">
          <mxGeometry relative="1" as="geometry">
            <mxPoint x="741" y="4190" as="sourcePoint" />
            <mxPoint x="741" y="4320" as="targetPoint" />
          </mxGeometry>
        </mxCell>
        <mxCell id="g3xv_-LL8xqr9nQWYGwZ-383" value="Walking with Treasure to the Locker" style="rounded=1;whiteSpace=wrap;html=1;fillColor=#009999;fontColor=#141414;" parent="1" vertex="1">
          <mxGeometry x="639.11" y="4350" width="203.73" height="30" as="geometry" />
        </mxCell>
        <mxCell id="g3xv_-LL8xqr9nQWYGwZ-388" style="edgeStyle=orthogonalEdgeStyle;rounded=0;orthogonalLoop=1;jettySize=auto;html=1;" parent="1" source="g3xv_-LL8xqr9nQWYGwZ-386" edge="1">
          <mxGeometry relative="1" as="geometry">
            <mxPoint x="740" y="4230" as="targetPoint" />
            <Array as="points">
              <mxPoint x="740" y="4230" />
            </Array>
          </mxGeometry>
        </mxCell>
        <mxCell id="g3xv_-LL8xqr9nQWYGwZ-386" value="Grabber" style="swimlane;fontStyle=1;childLayout=stackLayout;horizontal=1;startSize=30;horizontalStack=0;resizeParent=1;resizeParentMax=0;resizeLast=0;collapsible=1;marginBottom=0;whiteSpace=wrap;html=1;fillColor=#009999;fontColor=#303030;" parent="1" vertex="1">
          <mxGeometry x="400" y="4200" width="210" height="100" as="geometry" />
        </mxCell>
        <mxCell id="g3xv_-LL8xqr9nQWYGwZ-387" value="Takes Key by tracing;&lt;br&gt;Enable physics;&lt;br&gt;Adds tag &quot;Grabbed&quot; on grab;&lt;br&gt;Removes tag &quot;Grabbed&quot; on release." style="text;strokeColor=none;fillColor=default;align=left;verticalAlign=middle;spacingLeft=4;spacingRight=4;overflow=hidden;points=[[0,0.5],[1,0.5]];portConstraint=eastwest;rotatable=0;whiteSpace=wrap;html=1;" parent="g3xv_-LL8xqr9nQWYGwZ-386" vertex="1">
          <mxGeometry y="30" width="210" height="70" as="geometry" />
        </mxCell>
        <mxCell id="g3xv_-LL8xqr9nQWYGwZ-396" style="edgeStyle=orthogonalEdgeStyle;rounded=0;orthogonalLoop=1;jettySize=auto;html=1;entryX=1;entryY=0.75;entryDx=0;entryDy=0;" parent="1" source="g3xv_-LL8xqr9nQWYGwZ-389" target="g3xv_-LL8xqr9nQWYGwZ-371" edge="1">
          <mxGeometry relative="1" as="geometry" />
        </mxCell>
        <mxCell id="g3xv_-LL8xqr9nQWYGwZ-389" value="TagLockerA1" style="swimlane;fontStyle=1;childLayout=stackLayout;horizontal=1;startSize=30;horizontalStack=0;resizeParent=1;resizeParentMax=0;resizeLast=0;collapsible=1;marginBottom=0;whiteSpace=wrap;html=1;fillColor=#FF66FF;fontColor=#303030;" parent="1" vertex="1">
          <mxGeometry x="858.7299999999999" y="4440" width="245" height="90" as="geometry" />
        </mxCell>
        <mxCell id="g3xv_-LL8xqr9nQWYGwZ-390" value="Check if ActorHasTag &quot;TreasureA1&quot;;&lt;br&gt;Check if ActorHasNotTag &quot;Grabbed&quot;;&lt;br&gt;Disable physics and stick Treasure with it." style="text;strokeColor=none;fillColor=default;align=left;verticalAlign=middle;spacingLeft=4;spacingRight=4;overflow=hidden;points=[[0,0.5],[1,0.5]];portConstraint=eastwest;rotatable=0;whiteSpace=wrap;html=1;" parent="g3xv_-LL8xqr9nQWYGwZ-389" vertex="1">
          <mxGeometry y="30" width="245" height="60" as="geometry" />
        </mxCell>
        <mxCell id="_aBlnP6FN6MrEG6PL2YJ-41" style="edgeStyle=orthogonalEdgeStyle;rounded=0;orthogonalLoop=1;jettySize=auto;html=1;" parent="1" source="g3xv_-LL8xqr9nQWYGwZ-391" edge="1">
          <mxGeometry relative="1" as="geometry">
            <mxPoint x="1630" y="4485" as="targetPoint" />
          </mxGeometry>
        </mxCell>
        <mxCell id="g3xv_-LL8xqr9nQWYGwZ-391" value="MoverDungeon" style="swimlane;fontStyle=1;childLayout=stackLayout;horizontal=1;startSize=30;horizontalStack=0;resizeParent=1;resizeParentMax=0;resizeLast=0;collapsible=1;marginBottom=0;whiteSpace=wrap;html=1;fillColor=#9933FF;fontColor=#303030;" parent="1" vertex="1">
          <mxGeometry x="1286.73" y="4455" width="170" height="60" as="geometry">
            <mxRectangle x="1045" y="595" width="80" height="30" as="alternateBounds" />
          </mxGeometry>
        </mxCell>
        <mxCell id="g3xv_-LL8xqr9nQWYGwZ-392" value="LockersVec.push_back(true)" style="text;strokeColor=none;fillColor=default;align=left;verticalAlign=middle;spacingLeft=4;spacingRight=4;overflow=hidden;points=[[0,0.5],[1,0.5]];portConstraint=eastwest;rotatable=0;whiteSpace=wrap;html=1;" parent="g3xv_-LL8xqr9nQWYGwZ-391" vertex="1">
          <mxGeometry y="30" width="170" height="30" as="geometry" />
        </mxCell>
        <mxCell id="g3xv_-LL8xqr9nQWYGwZ-393" style="edgeStyle=orthogonalEdgeStyle;rounded=0;orthogonalLoop=1;jettySize=auto;html=1;entryX=0;entryY=0.5;entryDx=0;entryDy=0;" parent="1" source="g3xv_-LL8xqr9nQWYGwZ-395" target="g3xv_-LL8xqr9nQWYGwZ-392" edge="1">
          <mxGeometry relative="1" as="geometry" />
        </mxCell>
        <mxCell id="g3xv_-LL8xqr9nQWYGwZ-394" value="" style="edgeStyle=orthogonalEdgeStyle;rounded=0;orthogonalLoop=1;jettySize=auto;html=1;entryX=0;entryY=0.5;entryDx=0;entryDy=0;" parent="1" source="g3xv_-LL8xqr9nQWYGwZ-390" target="g3xv_-LL8xqr9nQWYGwZ-395" edge="1">
          <mxGeometry relative="1" as="geometry">
            <mxPoint x="1100.23" y="4620" as="sourcePoint" />
            <mxPoint x="1214.23" y="4620" as="targetPoint" />
          </mxGeometry>
        </mxCell>
        <mxCell id="g3xv_-LL8xqr9nQWYGwZ-395" value="SetState(true)" style="rounded=1;whiteSpace=wrap;html=1;" parent="1" vertex="1">
          <mxGeometry x="1138.73" y="4485" width="101" height="30" as="geometry" />
        </mxCell>
        <mxCell id="g3xv_-LL8xqr9nQWYGwZ-410" value="" style="edgeStyle=orthogonalEdgeStyle;rounded=0;orthogonalLoop=1;jettySize=auto;html=1;entryX=0.5;entryY=0;entryDx=0;entryDy=0;" parent="1" source="g3xv_-LL8xqr9nQWYGwZ-70" target="g3xv_-LL8xqr9nQWYGwZ-407" edge="1">
          <mxGeometry relative="1" as="geometry">
            <mxPoint x="741" y="4620" as="targetPoint" />
            <mxPoint x="1481" y="985" as="sourcePoint" />
            <Array as="points">
              <mxPoint x="1630" y="902" />
              <mxPoint x="1630" y="4540" />
              <mxPoint x="740" y="4540" />
            </Array>
          </mxGeometry>
        </mxCell>
        <mxCell id="g3xv_-LL8xqr9nQWYGwZ-411" style="edgeStyle=orthogonalEdgeStyle;rounded=0;orthogonalLoop=1;jettySize=auto;html=1;entryX=0.5;entryY=0;entryDx=0;entryDy=0;" parent="1" source="g3xv_-LL8xqr9nQWYGwZ-407" target="g3xv_-LL8xqr9nQWYGwZ-19" edge="1">
          <mxGeometry relative="1" as="geometry" />
        </mxCell>
        <mxCell id="g3xv_-LL8xqr9nQWYGwZ-407" value="Open Dungeon when 6 true in a LockersVec" style="rounded=1;whiteSpace=wrap;html=1;fillColor=#009999;fontColor=#141414;" parent="1" vertex="1">
          <mxGeometry x="638.3399999999998" y="4580" width="203.73" height="30" as="geometry" />
        </mxCell>
        <mxCell id="_aBlnP6FN6MrEG6PL2YJ-5" value="" style="endArrow=none;html=1;rounded=0;dashed=1;dashPattern=8 8;strokeColor=#AB61FF;strokeWidth=4;" parent="1" edge="1">
          <mxGeometry width="50" height="50" relative="1" as="geometry">
            <mxPoint x="10" y="1960" as="sourcePoint" />
            <mxPoint x="10" y="1960" as="targetPoint" />
            <Array as="points">
              <mxPoint x="580" y="1960" />
              <mxPoint x="580" y="2080" />
              <mxPoint x="1600" y="2080" />
              <mxPoint x="1600" y="2560" />
              <mxPoint x="10" y="2560" />
            </Array>
          </mxGeometry>
        </mxCell>
        <mxCell id="_aBlnP6FN6MrEG6PL2YJ-8" value="Rooms" style="swimlane;fontStyle=1;childLayout=stackLayout;horizontal=1;startSize=30;horizontalStack=0;resizeParent=1;resizeParentMax=0;resizeLast=0;collapsible=1;marginBottom=0;whiteSpace=wrap;html=1;fillColor=#D4E1F5;fontColor=#303030;" parent="1" vertex="1">
          <mxGeometry x="40" y="1988" width="120" height="67" as="geometry" />
        </mxCell>
        <mxCell id="_aBlnP6FN6MrEG6PL2YJ-9" value="Labyrinth&lt;br&gt;Vault" style="text;strokeColor=none;fillColor=default;align=left;verticalAlign=middle;spacingLeft=4;spacingRight=4;overflow=hidden;points=[[0,0.5],[1,0.5]];portConstraint=eastwest;rotatable=0;whiteSpace=wrap;html=1;" parent="_aBlnP6FN6MrEG6PL2YJ-8" vertex="1">
          <mxGeometry y="30" width="120" height="37" as="geometry" />
        </mxCell>
        <mxCell id="_aBlnP6FN6MrEG6PL2YJ-12" value="" style="endArrow=none;html=1;rounded=0;dashed=1;dashPattern=8 8;strokeColor=#CDFF59;strokeWidth=4;" parent="1" edge="1">
          <mxGeometry width="50" height="50" relative="1" as="geometry">
            <mxPoint x="10" y="2610" as="sourcePoint" />
            <mxPoint x="10" y="2610" as="targetPoint" />
            <Array as="points">
              <mxPoint x="440" y="2610" />
              <mxPoint x="440" y="2850" />
              <mxPoint x="890" y="2850" />
              <mxPoint x="1600" y="2850" />
              <mxPoint x="1600" y="3340" />
              <mxPoint x="10" y="3340" />
            </Array>
          </mxGeometry>
        </mxCell>
        <mxCell id="_aBlnP6FN6MrEG6PL2YJ-14" value="Rooms" style="swimlane;fontStyle=1;childLayout=stackLayout;horizontal=1;startSize=30;horizontalStack=0;resizeParent=1;resizeParentMax=0;resizeLast=0;collapsible=1;marginBottom=0;whiteSpace=wrap;html=1;fillColor=#D4E1F5;fontColor=#303030;" parent="1" vertex="1">
          <mxGeometry x="1157.5" y="2880" width="120" height="70" as="geometry" />
        </mxCell>
        <mxCell id="_aBlnP6FN6MrEG6PL2YJ-15" value="Labyrinth&lt;br&gt;Cage" style="text;strokeColor=none;fillColor=default;align=left;verticalAlign=middle;spacingLeft=4;spacingRight=4;overflow=hidden;points=[[0,0.5],[1,0.5]];portConstraint=eastwest;rotatable=0;whiteSpace=wrap;html=1;" parent="_aBlnP6FN6MrEG6PL2YJ-14" vertex="1">
          <mxGeometry y="30" width="120" height="40" as="geometry" />
        </mxCell>
        <mxCell id="_aBlnP6FN6MrEG6PL2YJ-18" value="" style="endArrow=none;html=1;rounded=0;strokeWidth=4;dashed=1;dashPattern=8 8;strokeColor=#37785C;" parent="1" edge="1">
          <mxGeometry width="50" height="50" relative="1" as="geometry">
            <mxPoint x="1600" y="4320" as="sourcePoint" />
            <mxPoint x="1600" y="4320" as="targetPoint" />
            <Array as="points">
              <mxPoint x="10" y="4320" />
              <mxPoint x="10" y="3550" />
              <mxPoint x="850" y="3550" />
              <mxPoint x="850" y="3610" />
              <mxPoint x="1600" y="3600" />
            </Array>
          </mxGeometry>
        </mxCell>
        <mxCell id="_aBlnP6FN6MrEG6PL2YJ-19" value="Rooms" style="swimlane;fontStyle=1;childLayout=stackLayout;horizontal=1;startSize=30;horizontalStack=0;resizeParent=1;resizeParentMax=0;resizeLast=0;collapsible=1;marginBottom=0;whiteSpace=wrap;html=1;fillColor=#D4E1F5;fontColor=#303030;" parent="1" vertex="1">
          <mxGeometry x="40" y="3575" width="120" height="70" as="geometry" />
        </mxCell>
        <mxCell id="_aBlnP6FN6MrEG6PL2YJ-20" value="Labyrinth&lt;br&gt;SouthWestCorner" style="text;strokeColor=none;fillColor=default;align=left;verticalAlign=middle;spacingLeft=4;spacingRight=4;overflow=hidden;points=[[0,0.5],[1,0.5]];portConstraint=eastwest;rotatable=0;whiteSpace=wrap;html=1;" parent="_aBlnP6FN6MrEG6PL2YJ-19" vertex="1">
          <mxGeometry y="30" width="120" height="40" as="geometry" />
        </mxCell>
        <mxCell id="_aBlnP6FN6MrEG6PL2YJ-21" value="" style="endArrow=none;html=1;rounded=0;dashed=1;dashPattern=8 8;strokeColor=#4570FF;strokeWidth=4;" parent="1" edge="1">
          <mxGeometry width="50" height="50" relative="1" as="geometry">
            <mxPoint x="10" y="1400" as="sourcePoint" />
            <mxPoint x="10" y="1400" as="targetPoint" />
            <Array as="points">
              <mxPoint x="410" y="1400" />
              <mxPoint x="1600" y="1400" />
              <mxPoint x="1600" y="1820" />
              <mxPoint x="10" y="1820" />
            </Array>
          </mxGeometry>
        </mxCell>
        <mxCell id="_aBlnP6FN6MrEG6PL2YJ-22" value="Rooms" style="swimlane;fontStyle=1;childLayout=stackLayout;horizontal=1;startSize=30;horizontalStack=0;resizeParent=1;resizeParentMax=0;resizeLast=0;collapsible=1;marginBottom=0;whiteSpace=wrap;html=1;fillColor=#D4E1F5;fontColor=#303030;" parent="1" vertex="1">
          <mxGeometry x="40" y="1440" width="120" height="67" as="geometry" />
        </mxCell>
        <mxCell id="_aBlnP6FN6MrEG6PL2YJ-23" value="Labyrinth&lt;br&gt;ActivatorTunnel" style="text;strokeColor=none;fillColor=default;align=left;verticalAlign=middle;spacingLeft=4;spacingRight=4;overflow=hidden;points=[[0,0.5],[1,0.5]];portConstraint=eastwest;rotatable=0;whiteSpace=wrap;html=1;" parent="_aBlnP6FN6MrEG6PL2YJ-22" vertex="1">
          <mxGeometry y="30" width="120" height="37" as="geometry" />
        </mxCell>
        <mxCell id="_aBlnP6FN6MrEG6PL2YJ-31" style="edgeStyle=orthogonalEdgeStyle;rounded=0;orthogonalLoop=1;jettySize=auto;html=1;entryX=0;entryY=0.5;entryDx=0;entryDy=0;" parent="1" source="_aBlnP6FN6MrEG6PL2YJ-25" target="g3xv_-LL8xqr9nQWYGwZ-135" edge="1">
          <mxGeometry relative="1" as="geometry" />
        </mxCell>
        <mxCell id="_aBlnP6FN6MrEG6PL2YJ-25" value="Active1&lt;br&gt;ActorTag[0] = &quot;Active1&quot;" style="rounded=0;whiteSpace=wrap;html=1;fontColor=#000000;fillColor=#EA6B66;" parent="1" vertex="1">
          <mxGeometry x="1093" y="1448.5" width="140" height="40" as="geometry" />
        </mxCell>
        <mxCell id="_aBlnP6FN6MrEG6PL2YJ-34" style="edgeStyle=orthogonalEdgeStyle;rounded=0;orthogonalLoop=1;jettySize=auto;html=1;entryX=0;entryY=0.5;entryDx=0;entryDy=0;" parent="1" source="_aBlnP6FN6MrEG6PL2YJ-26" target="g3xv_-LL8xqr9nQWYGwZ-137" edge="1">
          <mxGeometry relative="1" as="geometry" />
        </mxCell>
        <mxCell id="_aBlnP6FN6MrEG6PL2YJ-26" value="Active2&lt;br&gt;ActorTag[0] = &quot;Active2&quot;" style="rounded=0;whiteSpace=wrap;html=1;fontColor=#000000;fillColor=#EA6B66;" parent="1" vertex="1">
          <mxGeometry x="1093" y="1555" width="140" height="40" as="geometry" />
        </mxCell>
        <mxCell id="_aBlnP6FN6MrEG6PL2YJ-33" style="edgeStyle=orthogonalEdgeStyle;rounded=0;orthogonalLoop=1;jettySize=auto;html=1;entryX=0;entryY=0.5;entryDx=0;entryDy=0;" parent="1" source="g3xv_-LL8xqr9nQWYGwZ-129" target="_aBlnP6FN6MrEG6PL2YJ-26" edge="1">
          <mxGeometry relative="1" as="geometry">
            <Array as="points">
              <mxPoint x="1060" y="1455" />
              <mxPoint x="1060" y="1575" />
            </Array>
          </mxGeometry>
        </mxCell>
        <mxCell id="_aBlnP6FN6MrEG6PL2YJ-35" value="" style="endArrow=none;html=1;rounded=0;dashed=1;dashPattern=8 8;strokeColor=#FF5794;strokeWidth=4;" parent="1" edge="1">
          <mxGeometry width="50" height="50" relative="1" as="geometry">
            <mxPoint x="10" y="980" as="sourcePoint" />
            <mxPoint x="10" y="980" as="targetPoint" />
            <Array as="points">
              <mxPoint x="410" y="980" />
              <mxPoint x="1600" y="980" />
              <mxPoint x="1600" y="1120" />
              <mxPoint x="10" y="1110" />
            </Array>
          </mxGeometry>
        </mxCell>
        <mxCell id="_aBlnP6FN6MrEG6PL2YJ-36" value="Rooms" style="swimlane;fontStyle=1;childLayout=stackLayout;horizontal=1;startSize=30;horizontalStack=0;resizeParent=1;resizeParentMax=0;resizeLast=0;collapsible=1;marginBottom=0;whiteSpace=wrap;html=1;fillColor=#D4E1F5;fontColor=#303030;" parent="1" vertex="1">
          <mxGeometry x="40" y="1000" width="120" height="67" as="geometry" />
        </mxCell>
        <mxCell id="_aBlnP6FN6MrEG6PL2YJ-37" value="Labyrinth&lt;br&gt;NorthEastCorner" style="text;strokeColor=none;fillColor=default;align=left;verticalAlign=middle;spacingLeft=4;spacingRight=4;overflow=hidden;points=[[0,0.5],[1,0.5]];portConstraint=eastwest;rotatable=0;whiteSpace=wrap;html=1;" parent="_aBlnP6FN6MrEG6PL2YJ-36" vertex="1">
          <mxGeometry y="30" width="120" height="37" as="geometry" />
        </mxCell>
        <mxCell id="_aBlnP6FN6MrEG6PL2YJ-38" value="" style="endArrow=none;html=1;rounded=0;dashed=1;dashPattern=8 8;strokeColor=#7BCCBE;strokeWidth=4;" parent="1" edge="1">
          <mxGeometry width="50" height="50" relative="1" as="geometry">
            <mxPoint x="10" y="620" as="sourcePoint" />
            <mxPoint x="10" y="620" as="targetPoint" />
            <Array as="points">
              <mxPoint x="410" y="620" />
              <mxPoint x="1600" y="620" />
              <mxPoint x="1600" y="750" />
              <mxPoint x="10" y="750" />
            </Array>
          </mxGeometry>
        </mxCell>
        <mxCell id="_aBlnP6FN6MrEG6PL2YJ-39" value="Rooms" style="swimlane;fontStyle=1;childLayout=stackLayout;horizontal=1;startSize=30;horizontalStack=0;resizeParent=1;resizeParentMax=0;resizeLast=0;collapsible=1;marginBottom=0;whiteSpace=wrap;html=1;fillColor=#D4E1F5;fontColor=#303030;" parent="1" vertex="1">
          <mxGeometry x="40" y="640" width="120" height="67" as="geometry" />
        </mxCell>
        <mxCell id="_aBlnP6FN6MrEG6PL2YJ-40" value="Labyrinth&lt;br&gt;SouthEastCorner" style="text;strokeColor=none;fillColor=default;align=left;verticalAlign=middle;spacingLeft=4;spacingRight=4;overflow=hidden;points=[[0,0.5],[1,0.5]];portConstraint=eastwest;rotatable=0;whiteSpace=wrap;html=1;" parent="_aBlnP6FN6MrEG6PL2YJ-39" vertex="1">
          <mxGeometry y="30" width="120" height="37" as="geometry" />
        </mxCell>
        <mxCell id="_aBlnP6FN6MrEG6PL2YJ-42" value="" style="endArrow=none;html=1;rounded=0;dashed=1;dashPattern=8 8;strokeColor=#CCAB27;strokeWidth=4;" parent="1" edge="1">
          <mxGeometry width="50" height="50" relative="1" as="geometry">
            <mxPoint x="10" y="414.5" as="sourcePoint" />
            <mxPoint x="10" y="414.5" as="targetPoint" />
            <Array as="points">
              <mxPoint x="10" y="40" />
              <mxPoint x="1600" y="40" />
              <mxPoint x="1600" y="550" />
              <mxPoint x="10" y="550" />
            </Array>
          </mxGeometry>
        </mxCell>
        <mxCell id="_aBlnP6FN6MrEG6PL2YJ-43" value="Rooms" style="swimlane;fontStyle=1;childLayout=stackLayout;horizontal=1;startSize=30;horizontalStack=0;resizeParent=1;resizeParentMax=0;resizeLast=0;collapsible=1;marginBottom=0;whiteSpace=wrap;html=1;fillColor=#D4E1F5;fontColor=#303030;" parent="1" vertex="1">
          <mxGeometry x="40" y="53" width="120" height="67" as="geometry" />
        </mxCell>
        <mxCell id="_aBlnP6FN6MrEG6PL2YJ-44" value="Hall&lt;br&gt;NorthWestCorner" style="text;strokeColor=none;fillColor=default;align=left;verticalAlign=middle;spacingLeft=4;spacingRight=4;overflow=hidden;points=[[0,0.5],[1,0.5]];portConstraint=eastwest;rotatable=0;whiteSpace=wrap;html=1;" parent="_aBlnP6FN6MrEG6PL2YJ-43" vertex="1">
          <mxGeometry y="30" width="120" height="37" as="geometry" />
        </mxCell>
      </root>
    </mxGraphModel>
  </diagram>
</mxfile>
